AtkinsonHyperlegibleMono-Medium.sfdir
StartChar: numbersign
Encoding: 35 35 261
Width: 632
GlyphClass: 1
Flags: W
LayerCount: 2
Fore
SplineSet
129 171 m 1,0,-1
 30 171 l 1,1,-1
 41 263 l 1,2,-1
 138 263 l 1,3,-1
 156 405 l 1,4,-1
 58 405 l 1,5,-1
 70 497 l 1,6,-1
 167 497 l 1,7,-1
 189 668 l 1,8,-1
 287 668 l 1,9,-1
 265 497 l 1,10,-1
 406 497 l 1,11,-1
 428 668 l 1,12,-1
 526 668 l 1,13,-1
 504 497 l 1,14,-1
 603 497 l 1,15,-1
 591 405 l 1,16,-1
 495 405 l 1,17,-1
 477 263 l 1,18,-1
 574 263 l 1,19,-1
 563 171 l 1,20,-1
 466 171 l 1,21,-1
 444 0 l 1,22,-1
 346 0 l 1,23,-1
 368 171 l 1,24,-1
 227 171 l 1,25,-1
 205 0 l 1,26,-1
 107 0 l 1,27,-1
 129 171 l 1,0,-1
379 263 m 1,28,-1
 397 405 l 1,29,-1
 254 405 l 1,30,-1
 236 263 l 1,31,-1
 379 263 l 1,28,-1
EndSplineSet
EndChar
StartChar: dollar
Encoding: 36 36 304
Width: 632
GlyphClass: 1
Flags: W
LayerCount: 2
Fore
SplineSet
142.5 37.5 m 128,-1,1
 80 79 80 79 56 150 c 1,2,-1
 157 188 l 1,3,4
 169 144 169 144 204 116.5 c 128,-1,5
 239 89 239 89 286 81 c 1,6,-1
 286 303 l 1,7,-1
 253 310 l 2,8,9
 71 351 71 351 71 486 c 0,10,11
 71 540 71 540 100.5 581.5 c 128,-1,12
 130 623 130 623 179 647.5 c 128,-1,13
 228 672 228 672 286 678 c 1,14,-1
 286 758 l 1,15,-1
 341 758 l 1,16,-1
 341 680 l 1,17,18
 413 676 413 676 471 643 c 128,-1,19
 529 610 529 610 556 549 c 1,20,-1
 455 510 l 1,21,22
 441 542 441 542 410 562 c 128,-1,23
 379 582 379 582 341 588 c 1,24,-1
 341 390 l 1,25,-1
 367 384 l 2,26,27
 473 361 473 361 525 319.5 c 128,-1,28
 577 278 577 278 577 197 c 0,29,30
 577 138 577 138 545 92 c 128,-1,31
 513 46 513 46 459 20 c 128,-1,32
 405 -6 405 -6 341 -11 c 1,33,-1
 341 -90 l 1,34,-1
 286 -90 l 1,35,-1
 286 -10 l 1,36,0
 205 -4 205 -4 142.5 37.5 c 128,-1,1
431 111 m 128,-1,38
 466 139 466 139 466 188 c 0,39,40
 466 225 466 225 440.5 248 c 128,-1,41
 415 271 415 271 357 286 c 2,42,-1
 341 290 l 1,43,-1
 341 78 l 1,44,37
 396 83 396 83 431 111 c 128,-1,38
210.5 559.5 m 128,-1,46
 182 535 182 535 182 494 c 0,47,48
 182 462 182 462 205 440 c 128,-1,49
 228 418 228 418 271 407 c 2,50,-1
 286 403 l 1,51,-1
 286 589 l 1,52,45
 239 584 239 584 210.5 559.5 c 128,-1,46
EndSplineSet
EndChar
StartChar: percent
Encoding: 37 37 332
Width: 632
GlyphClass: 1
Flags: W
LayerCount: 2
Fore
SplineSet
86.5 401 m 128,-1,1
 52 421 52 421 32 455.5 c 128,-1,2
 12 490 12 490 12 531 c 256,3,4
 12 572 12 572 32 606.5 c 128,-1,5
 52 641 52 641 86.5 661 c 128,-1,6
 121 681 121 681 162 681 c 256,7,8
 203 681 203 681 237 661 c 128,-1,9
 271 641 271 641 291 606.5 c 128,-1,10
 311 572 311 572 311 531 c 256,11,12
 311 490 311 490 291 455.5 c 128,-1,13
 271 421 271 421 237 401 c 128,-1,14
 203 381 203 381 162 381 c 256,15,0
 121 381 121 381 86.5 401 c 128,-1,1
216.5 475 m 128,-1,17
 239 498 239 498 239 531 c 0,18,19
 239 563 239 563 216 586.5 c 128,-1,20
 193 610 193 610 162 610 c 0,21,22
 130 610 130 610 107.5 586.5 c 128,-1,23
 85 563 85 563 85 531 c 0,24,25
 85 498 85 498 107.5 475 c 128,-1,26
 130 452 130 452 162 452 c 256,27,16
 194 452 194 452 216.5 475 c 128,-1,17
455 668 m 1,28,-1
 541 668 l 1,29,-1
 178 0 l 1,30,-1
 91 0 l 1,31,-1
 455 668 l 1,28,-1
396.5 7 m 128,-1,33
 362 27 362 27 342 61.5 c 128,-1,34
 322 96 322 96 322 137 c 256,35,36
 322 178 322 178 342 212.5 c 128,-1,37
 362 247 362 247 396.5 267 c 128,-1,38
 431 287 431 287 472 287 c 256,39,40
 513 287 513 287 547 267 c 128,-1,41
 581 247 581 247 601 212.5 c 128,-1,42
 621 178 621 178 621 137 c 256,43,44
 621 96 621 96 601 61.5 c 128,-1,45
 581 27 581 27 547 7 c 128,-1,46
 513 -13 513 -13 472 -13 c 256,47,32
 431 -13 431 -13 396.5 7 c 128,-1,33
526.5 81 m 128,-1,49
 549 104 549 104 549 137 c 0,50,51
 549 169 549 169 526 192.5 c 128,-1,52
 503 216 503 216 472 216 c 0,53,54
 440 216 440 216 417.5 192.5 c 128,-1,55
 395 169 395 169 395 137 c 0,56,57
 395 104 395 104 417.5 81 c 128,-1,58
 440 58 440 58 472 58 c 256,59,48
 504 58 504 58 526.5 81 c 128,-1,49
EndSplineSet
EndChar
StartChar: quotesingle
Encoding: 39 39 285
Width: 632
GlyphClass: 1
Flags: W
LayerCount: 2
Fore
SplineSet
262 668 m 1,0,-1
 371 668 l 1,1,-1
 355 426 l 1,2,-1
 278 426 l 1,3,-1
 262 668 l 1,0,-1
EndSplineSet
EndChar
StartChar: parenleft
Encoding: 40 40 268
Width: 632
GlyphClass: 1
Flags: W
LayerCount: 2
Fore
SplineSet
212.5 45 m 128,-1,1
 160 157 160 157 160 273 c 0,2,3
 160 390 160 390 212.5 502 c 128,-1,4
 265 614 265 614 364 708 c 1,5,-1
 492 708 l 1,6,7
 384 609 384 609 326 496.5 c 128,-1,8
 268 384 268 384 268 273 c 256,9,10
 268 162 268 162 326 49.5 c 128,-1,11
 384 -63 384 -63 492 -162 c 1,12,-1
 364 -162 l 1,13,0
 265 -67 265 -67 212.5 45 c 128,-1,1
EndSplineSet
EndChar
StartChar: parenright
Encoding: 41 41 269
Width: 632
GlyphClass: 1
Flags: W
LayerCount: 2
Fore
SplineSet
306.5 49.5 m 128,-1,1
 365 162 365 162 365 273 c 256,2,3
 365 384 365 384 306.5 496.5 c 128,-1,4
 248 609 248 609 140 708 c 1,5,-1
 268 708 l 1,6,7
 367 614 367 614 419.5 502 c 128,-1,8
 472 390 472 390 472 273 c 0,9,10
 472 157 472 157 419.5 44.5 c 128,-1,11
 367 -68 367 -68 268 -162 c 1,12,-1
 140 -162 l 1,13,0
 248 -63 248 -63 306.5 49.5 c 128,-1,1
EndSplineSet
EndChar
StartChar: plus
Encoding: 43 43 311
Width: 632
GlyphClass: 1
Flags: W
LayerCount: 2
Fore
SplineSet
269 201 m 1,0,-1
 63 201 l 1,1,-1
 63 295 l 1,2,-1
 269 295 l 1,3,-1
 269 496 l 1,4,-1
 363 496 l 1,5,-1
 363 295 l 1,6,-1
 569 295 l 1,7,-1
 569 201 l 1,8,-1
 363 201 l 1,9,-1
 363 0 l 1,10,-1
 269 0 l 1,11,-1
 269 201 l 1,0,-1
EndSplineSet
EndChar
StartChar: comma
Encoding: 44 44 250
Width: 632
GlyphClass: 1
Flags: W
LayerCount: 2
Fore
SplineSet
252.5 18.5 m 128,-1,1
 233 42 233 42 233 72 c 0,2,3
 233 106 233 106 257.5 130.5 c 128,-1,4
 282 155 282 155 317 155 c 256,5,6
 352 155 352 155 376 131 c 128,-1,7
 400 107 400 107 400 72 c 0,8,9
 400 52 400 52 393 36 c 2,10,-1
 320 -149 l 1,11,-1
 247 -149 l 1,12,-1
 301 -10 l 1,13,0
 272 -5 272 -5 252.5 18.5 c 128,-1,1
EndSplineSet
EndChar
StartChar: period
Encoding: 46 46 249
Width: 632
GlyphClass: 1
Flags: W
LayerCount: 2
Fore
SplineSet
257.5 12.5 m 128,-1,1
 233 37 233 37 233 72 c 256,2,3
 233 107 233 107 257.5 131 c 128,-1,4
 282 155 282 155 316 155 c 0,5,6
 351 155 351 155 375.5 130.5 c 128,-1,7
 400 106 400 106 400 72 c 256,8,9
 400 38 400 38 375.5 13 c 128,-1,10
 351 -12 351 -12 316 -12 c 0,11,0
 282 -12 282 -12 257.5 12.5 c 128,-1,1
EndSplineSet
EndChar
StartChar: zero
Encoding: 48 48 229
Width: 632
GlyphClass: 1
Flags: W
LayerCount: 2
Fore
SplineSet
116.5 79 m 128,-1,1
 45 170 45 170 45 335 c 256,2,3
 45 500 45 500 116 591 c 128,-1,4
 187 682 187 682 316 682 c 256,5,6
 445 682 445 682 516 591.5 c 128,-1,7
 587 501 587 501 587 335 c 0,8,9
 587 170 587 170 516 79 c 128,-1,10
 445 -12 445 -12 316 -12 c 0,11,0
 188 -12 188 -12 116.5 79 c 128,-1,1
424 121 m 1,13,-1
 177 479 l 1,14,15
 155 422 155 422 155 336 c 0,16,17
 155 201 155 201 198 136.5 c 128,-1,18
 241 72 241 72 316 72 c 0,19,12
 384 72 384 72 424 121 c 1,13,-1
478 336 m 0,21,22
 478 454 478 454 436.5 526 c 128,-1,23
 395 598 395 598 316 598 c 0,24,25
 252 598 252 598 211 550 c 1,26,-1
 457 193 l 1,27,20
 478 253 478 253 478 336 c 0,21,22
EndSplineSet
Substitution2: "'zero' Slashed Zero in Latin lookup 10 subtable" zero.zero
AlternateSubs2: "'aalt' Access All Alternates in Latin lookup 0 subtable" zero.zero
EndChar
StartChar: one
Encoding: 49 49 230
Width: 632
GlyphClass: 5
Flags: W
LayerCount: 2
Fore
SplineSet
111 91 m 1,0,-1
 275 91 l 1,1,-1
 275 486 l 1,2,-1
 110 486 l 1,3,-1
 110 572 l 1,4,5
 171 572 171 572 206 579 c 128,-1,6
 241 586 241 586 264.5 606.5 c 128,-1,7
 288 627 288 627 303 668 c 1,8,-1
 383 668 l 1,9,-1
 383 91 l 1,10,-1
 527 91 l 1,11,-1
 527 0 l 1,12,-1
 111 0 l 1,13,-1
 111 91 l 1,0,-1
EndSplineSet
Substitution2: "'sups' Superscript in Latin lookup 6 subtable" uni00B9
AlternateSubs2: "'aalt' Access All Alternates in Latin lookup 0 subtable" uni00B9
EndChar
StartChar: two
Encoding: 50 50 231
Width: 632
GlyphClass: 5
Flags: W
LayerCount: 2
Fore
SplineSet
285.5 252.5 m 128,-1,1
 363 321 363 321 399.5 378 c 128,-1,2
 436 435 436 435 436 490 c 0,3,4
 436 538 436 538 404.5 567 c 128,-1,5
 373 596 373 596 321 596 c 0,6,7
 276 596 276 596 241.5 570.5 c 128,-1,8
 207 545 207 545 195 493 c 1,9,-1
 93 528 l 1,10,11
 116 599 116 599 177.5 639.5 c 128,-1,12
 239 680 239 680 326 680 c 0,13,14
 424 680 424 680 485.5 630 c 128,-1,15
 547 580 547 580 547 491 c 0,16,17
 547 386 547 386 461 288 c 128,-1,18
 375 190 375 190 222 93 c 1,19,-1
 562 93 l 1,20,-1
 562 0 l 1,21,-1
 78 0 l 1,22,-1
 78 92 l 1,23,0
 208 184 208 184 285.5 252.5 c 128,-1,1
EndSplineSet
Substitution2: "'sups' Superscript in Latin lookup 6 subtable" uni00B2
AlternateSubs2: "'aalt' Access All Alternates in Latin lookup 0 subtable" uni00B2
EndChar
StartChar: three
Encoding: 51 51 232
Width: 632
GlyphClass: 5
Flags: W
LayerCount: 2
Fore
SplineSet
160.5 31 m 128,-1,1
 98 74 98 74 76 148 c 1,2,-1
 177 180 l 1,3,4
 189 129 189 129 226 101 c 128,-1,5
 263 73 263 73 320 73 c 0,6,7
 380 73 380 73 417 104 c 128,-1,8
 454 135 454 135 454 188 c 0,9,10
 454 249 454 249 407.5 279.5 c 128,-1,11
 361 310 361 310 283 310 c 2,12,-1
 258 310 l 1,13,-1
 258 389 l 1,14,-1
 283 389 l 2,15,16
 351 389 351 389 394.5 417.5 c 128,-1,17
 438 446 438 446 438 500 c 0,18,19
 438 545 438 545 403 570.5 c 128,-1,20
 368 596 368 596 318 596 c 0,21,22
 267 596 267 596 231 569 c 128,-1,23
 195 542 195 542 185 494 c 1,24,-1
 85 528 l 1,25,26
 108 598 108 598 171.5 639 c 128,-1,27
 235 680 235 680 323 680 c 0,28,29
 383 680 383 680 434 660.5 c 128,-1,30
 485 641 485 641 516.5 602.5 c 128,-1,31
 548 564 548 564 548 508 c 0,32,33
 548 451 548 451 517.5 410.5 c 128,-1,34
 487 370 487 370 433 353 c 1,35,36
 497 337 497 337 531 292.5 c 128,-1,37
 565 248 565 248 565 190 c 0,38,39
 565 126 565 126 531 80 c 128,-1,40
 497 34 497 34 440.5 11 c 128,-1,41
 384 -12 384 -12 317 -12 c 0,42,0
 223 -12 223 -12 160.5 31 c 128,-1,1
EndSplineSet
Substitution2: "'sups' Superscript in Latin lookup 6 subtable" uni00B3
AlternateSubs2: "'aalt' Access All Alternates in Latin lookup 0 subtable" uni00B3
EndChar
StartChar: five
Encoding: 53 53 234
Width: 632
GlyphClass: 1
Flags: W
LayerCount: 2
Fore
SplineSet
163.5 31 m 128,-1,1
 103 74 103 74 79 147 c 1,2,-1
 176 179 l 1,3,4
 202 73 202 73 313 73 c 0,5,6
 373 73 373 73 413.5 112.5 c 128,-1,7
 454 152 454 152 454 220 c 0,8,9
 454 292 454 292 413.5 329.5 c 128,-1,10
 373 367 373 367 316 367 c 0,11,12
 275 367 275 367 242 348.5 c 128,-1,13
 209 330 209 330 189 295 c 1,14,-1
 91 329 l 1,15,-1
 133 668 l 1,16,-1
 536 668 l 1,17,-1
 536 576 l 1,18,-1
 223 576 l 1,19,-1
 202 402 l 1,20,21
 227 426 227 426 263.5 439 c 128,-1,22
 300 452 300 452 341 452 c 0,23,24
 402 452 402 452 453.5 424.5 c 128,-1,25
 505 397 505 397 535.5 344.5 c 128,-1,26
 566 292 566 292 566 220 c 0,27,28
 566 147 566 147 532 94.5 c 128,-1,29
 498 42 498 42 441 15 c 128,-1,30
 384 -12 384 -12 316 -12 c 0,31,0
 224 -12 224 -12 163.5 31 c 128,-1,1
EndSplineSet
EndChar
StartChar: nine
Encoding: 57 57 238
Width: 632
GlyphClass: 1
Flags: W
LayerCount: 2
Fore
SplineSet
305 205 m 0,1,2
 245 205 245 205 191 235 c 128,-1,3
 137 265 137 265 103.5 319 c 128,-1,4
 70 373 70 373 70 441 c 0,5,6
 70 507 70 507 102 562 c 128,-1,7
 134 617 134 617 189 649 c 128,-1,8
 244 681 244 681 309 681 c 0,9,10
 375 681 375 681 430.5 649 c 128,-1,11
 486 617 486 617 518.5 561.5 c 128,-1,12
 551 506 551 506 551 440 c 0,13,14
 551 400 551 400 539 364.5 c 128,-1,15
 527 329 527 329 497 276 c 2,16,-1
 342 0 l 1,17,-1
 228 0 l 1,18,-1
 351 210 l 1,19,0
 326 205 326 205 305 205 c 0,1,2
382.5 317 m 128,-1,21
 415 336 415 336 434 369 c 128,-1,22
 453 402 453 402 453 440 c 0,23,24
 453 476 453 476 435 509 c 128,-1,25
 417 542 417 542 384.5 562.5 c 128,-1,26
 352 583 352 583 311 583 c 0,27,28
 271 583 271 583 238.5 563.5 c 128,-1,29
 206 544 206 544 187.5 511 c 128,-1,30
 169 478 169 478 169 441 c 0,31,32
 169 401 169 401 188.5 368 c 128,-1,33
 208 335 208 335 241 316.5 c 128,-1,34
 274 298 274 298 311 298 c 0,35,20
 350 298 350 298 382.5 317 c 128,-1,21
EndSplineSet
EndChar
StartChar: less
Encoding: 60 60 318
Width: 632
GlyphClass: 1
Flags: W
LayerCount: 2
Fore
SplineSet
77 211 m 1,0,-1
 77 287 l 1,1,-1
 556 500 l 1,2,-1
 556 394 l 1,3,-1
 203 249 l 1,4,-1
 556 103 l 1,5,-1
 556 -2 l 1,6,-1
 77 211 l 1,0,-1
EndSplineSet
EndChar
StartChar: greater
Encoding: 62 62 317
Width: 632
GlyphClass: 1
Flags: W
LayerCount: 2
Fore
SplineSet
77 103 m 1,0,-1
 430 249 l 1,1,-1
 77 394 l 1,2,-1
 77 500 l 1,3,-1
 556 287 l 1,4,-1
 556 211 l 1,5,-1
 77 -2 l 1,6,-1
 77 103 l 1,0,-1
EndSplineSet
EndChar
StartChar: question
Encoding: 63 63 256
Width: 632
GlyphClass: 1
Flags: W
LayerCount: 2
Fore
SplineSet
255 330 m 128,-1,1
 279 367 279 367 342 399 c 0,2,3
 390 425 390 425 413.5 451 c 128,-1,4
 437 477 437 477 437 509 c 0,5,6
 437 546 437 546 405 568.5 c 128,-1,7
 373 591 373 591 323 591 c 0,8,9
 270 591 270 591 235 563 c 128,-1,10
 200 535 200 535 188 495 c 1,11,-1
 88 527 l 1,12,13
 107 598 107 598 171 639 c 128,-1,14
 235 680 235 680 325 680 c 0,15,16
 384 680 384 680 435.5 660.5 c 128,-1,17
 487 641 487 641 518.5 602.5 c 128,-1,18
 550 564 550 564 550 510 c 0,19,20
 550 453 550 453 519 415 c 128,-1,21
 488 377 488 377 420 332 c 0,22,23
 385 311 385 311 368.5 296 c 128,-1,24
 352 281 352 281 346.5 267 c 128,-1,25
 341 253 341 253 341 231 c 2,26,-1
 341 202 l 1,27,-1
 231 202 l 1,28,-1
 231 229 l 2,29,0
 231 293 231 293 255 330 c 128,-1,1
234.5 10.5 m 128,-1,31
 212 33 212 33 212 64 c 256,32,33
 212 95 212 95 234 117 c 128,-1,34
 256 139 256 139 288 139 c 0,35,36
 319 139 319 139 341 117 c 128,-1,37
 363 95 363 95 363 64 c 256,38,39
 363 33 363 33 341 10.5 c 128,-1,40
 319 -12 319 -12 288 -12 c 256,41,30
 257 -12 257 -12 234.5 10.5 c 128,-1,31
EndSplineSet
EndChar
StartChar: at
Encoding: 64 64 288
Width: 632
GlyphClass: 1
Flags: W
LayerCount: 2
Fore
SplineSet
166 -55.5 m 128,-1,1
 95 -13 95 -13 54 67 c 128,-1,2
 13 147 13 147 13 254 c 0,3,4
 13 357 13 357 52.5 437 c 128,-1,5
 92 517 92 517 162.5 561.5 c 128,-1,6
 233 606 233 606 323 606 c 0,7,8
 402 606 402 606 470 569.5 c 128,-1,9
 538 533 538 533 579 460.5 c 128,-1,10
 620 388 620 388 620 286 c 0,11,12
 620 215 620 215 600.5 167.5 c 128,-1,13
 581 120 581 120 549.5 97.5 c 128,-1,14
 518 75 518 75 483 75 c 0,15,16
 453 75 453 75 428 91.5 c 128,-1,17
 403 108 403 108 392 135 c 1,18,19
 374 103 374 103 347 89 c 128,-1,20
 320 75 320 75 289 75 c 0,21,22
 257 75 257 75 227 94 c 128,-1,23
 197 113 197 113 177.5 150 c 128,-1,24
 158 187 158 187 158 238 c 0,25,26
 158 341 158 341 209.5 390 c 128,-1,27
 261 439 261 439 335 439 c 0,28,29
 390 439 390 439 448 419 c 1,30,-1
 448 210 l 2,31,32
 448 172 448 172 460.5 155.5 c 128,-1,33
 473 139 473 139 493 139 c 0,34,35
 523 139 523 139 539.5 181 c 128,-1,36
 556 223 556 223 556 289 c 0,37,38
 556 366 556 366 526.5 424.5 c 128,-1,39
 497 483 497 483 444 514.5 c 128,-1,40
 391 546 391 546 322 546 c 0,41,42
 249 546 249 546 194 509.5 c 128,-1,43
 139 473 139 473 109 407 c 128,-1,44
 79 341 79 341 79 255 c 0,45,46
 79 165 79 165 111 99 c 128,-1,47
 143 33 143 33 198 -2 c 128,-1,48
 253 -37 253 -37 323 -37 c 0,49,50
 386 -37 386 -37 440 -2 c 1,51,-1
 440 -70 l 1,52,53
 384 -98 384 -98 324 -98 c 0,54,0
 237 -98 237 -98 166 -55.5 c 128,-1,1
356 171.5 m 128,-1,56
 379 199 379 199 379 242 c 2,57,-1
 379 366 l 1,58,59
 362 371 362 371 335 371 c 0,60,61
 293 371 293 371 263.5 342 c 128,-1,62
 234 313 234 313 234 242 c 0,63,64
 234 196 234 196 254 170 c 128,-1,65
 274 144 274 144 302 144 c 0,66,55
 333 144 333 144 356 171.5 c 128,-1,56
EndSplineSet
EndChar
StartChar: B
Encoding: 66 66 13
Width: 632
GlyphClass: 2
Flags: W
AnchorPoint: "Anchor-1" 322 668 basechar 0
AnchorPoint: "Anchor-0" 322 0 basechar 0
LayerCount: 2
Fore
SplineSet
91 668 m 1,0,-1
 340 668 l 2,1,2
 444 668 444 668 498.5 623 c 128,-1,3
 553 578 553 578 553 496 c 0,4,5
 553 449 553 449 530.5 410.5 c 128,-1,6
 508 372 508 372 465 352 c 1,7,8
 519 333 519 333 549.5 292.5 c 128,-1,9
 580 252 580 252 580 191 c 0,10,11
 580 100 580 100 521.5 50 c 128,-1,12
 463 0 463 0 355 0 c 2,13,-1
 91 0 l 1,14,-1
 91 668 l 1,0,-1
441 120 m 128,-1,16
 471 149 471 149 471 197 c 0,17,18
 471 243 471 243 440 271 c 128,-1,19
 409 299 409 299 350 299 c 2,20,-1
 197 299 l 1,21,-1
 197 91 l 1,22,-1
 351 91 l 2,23,15
 411 91 411 91 441 120 c 128,-1,16
420 415.5 m 128,-1,25
 446 441 446 441 446 482 c 0,26,27
 446 525 446 525 418 551 c 128,-1,28
 390 577 390 577 337 577 c 2,29,-1
 197 577 l 1,30,-1
 197 390 l 1,31,-1
 344 390 l 2,32,24
 394 390 394 390 420 415.5 c 128,-1,25
EndSplineSet
EndChar
StartChar: D
Encoding: 68 68 19
Width: 632
GlyphClass: 2
Flags: W
AnchorPoint: "Anchor-1" 318 668 basechar 0
AnchorPoint: "Anchor-0" 322 0 basechar 0
LayerCount: 2
Fore
SplineSet
70 668 m 1,0,-1
 250 668 l 2,1,2
 410 668 410 668 502 590 c 128,-1,3
 594 512 594 512 594 335 c 256,4,5
 594 158 594 158 501.5 79 c 128,-1,6
 409 0 409 0 250 0 c 2,7,-1
 70 0 l 1,8,-1
 70 668 l 1,0,-1
420.5 143.5 m 128,-1,10
 486 194 486 194 486 335 c 0,11,12
 486 433 486 433 453 486 c 128,-1,13
 420 539 420 539 367.5 557.5 c 128,-1,14
 315 576 315 576 244 576 c 2,15,-1
 175 576 l 1,16,-1
 175 93 l 1,17,-1
 244 93 l 2,18,9
 355 93 355 93 420.5 143.5 c 128,-1,10
EndSplineSet
EndChar
StartChar: E
Encoding: 69 69 23
Width: 632
GlyphClass: 2
Flags: W
AnchorPoint: "Anchor-2" 551 10 basechar 0
AnchorPoint: "Anchor-1" 333 668 basechar 0
AnchorPoint: "Anchor-0" 317 0 basechar 0
LayerCount: 2
Fore
SplineSet
113 668 m 1,0,-1
 547 668 l 1,1,-1
 547 569 l 1,2,-1
 226 569 l 1,3,-1
 226 393 l 1,4,-1
 451 393 l 1,5,-1
 451 295 l 1,6,-1
 226 295 l 1,7,-1
 226 99 l 1,8,-1
 551 99 l 1,9,-1
 551 0 l 1,10,-1
 113 0 l 1,11,-1
 113 668 l 1,0,-1
EndSplineSet
EndChar
StartChar: F
Encoding: 70 70 32
Width: 632
GlyphClass: 2
Flags: W
AnchorPoint: "Anchor-1" 311 668 basechar 0
AnchorPoint: "Anchor-0" 311 0 basechar 0
LayerCount: 2
Fore
SplineSet
115 668 m 1,0,-1
 551 668 l 1,1,-1
 551 569 l 1,2,-1
 228 569 l 1,3,-1
 228 376 l 1,4,-1
 547 376 l 1,5,-1
 547 277 l 1,6,-1
 228 277 l 1,7,-1
 228 0 l 1,8,-1
 115 0 l 1,9,-1
 115 668 l 1,0,-1
EndSplineSet
EndChar
StartChar: G
Encoding: 71 71 33
Width: 632
GlyphClass: 2
Flags: W
AnchorPoint: "Anchor-1" 316 668 basechar 0
AnchorPoint: "Anchor-0" 316 0 basechar 0
LayerCount: 2
Fore
SplineSet
167 31.5 m 128,-1,1
 105 75 105 75 72 153.5 c 128,-1,2
 39 232 39 232 39 335 c 0,3,4
 39 439 39 439 74.5 517 c 128,-1,5
 110 595 110 595 175 637.5 c 128,-1,6
 240 680 240 680 325 680 c 0,7,8
 404 680 404 680 466.5 640.5 c 128,-1,9
 529 601 529 601 558 527 c 1,10,-1
 467 494 l 1,11,12
 450 538 450 538 414 563.5 c 128,-1,13
 378 589 378 589 326 589 c 0,14,15
 275 589 275 589 234.5 560 c 128,-1,16
 194 531 194 531 170.5 474 c 128,-1,17
 147 417 147 417 147 335 c 0,18,19
 147 255 147 255 170 197.5 c 128,-1,20
 193 140 193 140 234 110 c 128,-1,21
 275 80 275 80 329 80 c 0,22,23
 389 80 389 80 435.5 119 c 128,-1,24
 482 158 482 158 482 245 c 2,25,-1
 482 268 l 1,26,-1
 324 268 l 1,27,-1
 324 356 l 1,28,-1
 580 356 l 1,29,-1
 580 0 l 1,30,-1
 513 0 l 1,31,-1
 495 84 l 1,32,33
 466 37 466 37 416.5 12.5 c 128,-1,34
 367 -12 367 -12 312 -12 c 0,35,0
 229 -12 229 -12 167 31.5 c 128,-1,1
EndSplineSet
EndChar
StartChar: L
Encoding: 76 76 52
Width: 632
GlyphClass: 2
Flags: W
AnchorPoint: "Anchor-3" 298 459 basechar 0
AnchorPoint: "Anchor-1" 326 668 basechar 0
AnchorPoint: "Anchor-0" 336 0 basechar 0
LayerCount: 2
Fore
SplineSet
124 668 m 1,0,-1
 237 668 l 1,1,-1
 237 99 l 1,2,-1
 583 99 l 1,3,-1
 583 0 l 1,4,-1
 124 0 l 1,5,-1
 124 668 l 1,0,-1
EndSplineSet
EndChar
StartChar: Q
Encoding: 81 81 73
Width: 632
GlyphClass: 1
Flags: W
LayerCount: 2
Fore
SplineSet
168.5 31.5 m 128,-1,1
 106 75 106 75 72.5 153 c 128,-1,2
 39 231 39 231 39 334 c 256,3,4
 39 437 39 437 72.5 515.5 c 128,-1,5
 106 594 106 594 168.5 637 c 128,-1,6
 231 680 231 680 316 680 c 0,7,8
 402 680 402 680 464.5 637 c 128,-1,9
 527 594 527 594 560.5 515.5 c 128,-1,10
 594 437 594 437 594 334 c 0,11,12
 594 217 594 217 549 130 c 1,13,-1
 632 52 l 1,14,-1
 571 -13 l 1,15,-1
 495 58 l 1,16,17
 425 -12 425 -12 316 -12 c 0,18,0
 231 -12 231 -12 168.5 31.5 c 128,-1,1
422 127 m 1,20,-1
 283 258 l 1,21,-1
 344 323 l 1,22,-1
 462 212 l 1,23,24
 483 265 483 265 483 334 c 0,25,26
 483 456 483 456 437.5 522.5 c 128,-1,27
 392 589 392 589 316 589 c 0,28,29
 241 589 241 589 195.5 522.5 c 128,-1,30
 150 456 150 456 150 334 c 0,31,32
 150 213 150 213 195.5 146.5 c 128,-1,33
 241 80 241 80 316 80 c 0,34,19
 380 80 380 80 422 127 c 1,20,-1
EndSplineSet
EndChar
StartChar: S
Encoding: 83 83 77
Width: 632
GlyphClass: 2
Flags: W
AnchorPoint: "Anchor-1" 316 668 basechar 0
AnchorPoint: "Anchor-0" 316 0 basechar 0
LayerCount: 2
Fore
SplineSet
154.5 30 m 128,-1,1
 83 72 83 72 56 150 c 1,2,-1
 161 188 l 1,3,4
 175 137 175 137 219 108.5 c 128,-1,5
 263 80 263 80 320 80 c 0,6,7
 379 80 379 80 420.5 108.5 c 128,-1,8
 462 137 462 137 462 188 c 0,9,10
 462 227 462 227 432 250.5 c 128,-1,11
 402 274 402 274 331 290 c 2,12,-1
 258 307 l 2,13,14
 72 347 72 347 72 489 c 0,15,16
 72 545 72 545 105.5 588.5 c 128,-1,17
 139 632 139 632 196 656 c 128,-1,18
 253 680 253 680 321 680 c 0,19,20
 397 680 397 680 461 647 c 128,-1,21
 525 614 525 614 555 549 c 1,22,-1
 451 510 l 1,23,24
 434 547 434 547 396 567.5 c 128,-1,25
 358 588 358 588 315 588 c 0,26,27
 259 588 259 588 222.5 563 c 128,-1,28
 186 538 186 538 186 493 c 0,29,30
 186 428 186 428 282 406 c 2,31,-1
 362 387 l 2,32,33
 467 364 467 364 521.5 321.5 c 128,-1,34
 576 279 576 279 576 198 c 0,35,36
 576 135 576 135 541 87.5 c 128,-1,37
 506 40 506 40 446.5 14 c 128,-1,38
 387 -12 387 -12 318 -12 c 0,39,0
 226 -12 226 -12 154.5 30 c 128,-1,1
EndSplineSet
EndChar
StartChar: U
Encoding: 85 85 87
Width: 632
GlyphClass: 2
Flags: W
AnchorPoint: "Anchor-3" 636 668 basechar 0
AnchorPoint: "Anchor-1" 316 668 basechar 0
LayerCount: 2
Fore
SplineSet
126.5 53.5 m 128,-1,1
 68 119 68 119 68 255 c 2,2,-1
 68 668 l 1,3,-1
 181 668 l 1,4,-1
 181 242 l 2,5,6
 181 162 181 162 212.5 121.5 c 128,-1,7
 244 81 244 81 317 81 c 0,8,9
 389 81 389 81 420 121 c 128,-1,10
 451 161 451 161 451 242 c 2,11,-1
 451 668 l 1,12,-1
 564 668 l 1,13,-1
 564 255 l 2,14,15
 564 119 564 119 505 53.5 c 128,-1,16
 446 -12 446 -12 316 -12 c 0,17,0
 185 -12 185 -12 126.5 53.5 c 128,-1,1
EndSplineSet
EndChar
StartChar: X
Encoding: 88 88 102
Width: 632
GlyphClass: 2
Flags: W
AnchorPoint: "Anchor-1" 317 668 basechar 0
AnchorPoint: "Anchor-0" 317 0 basechar 0
LayerCount: 2
Fore
SplineSet
255 344 m 1,0,-1
 39 668 l 1,1,-1
 160 668 l 1,2,-1
 314 437 l 1,3,-1
 318 437 l 1,4,-1
 472 668 l 1,5,-1
 594 668 l 1,6,-1
 378 344 l 1,7,-1
 607 0 l 1,8,-1
 485 0 l 1,9,-1
 318 252 l 1,10,-1
 314 252 l 1,11,-1
 148 0 l 1,12,-1
 26 0 l 1,13,-1
 255 344 l 1,0,-1
EndSplineSet
EndChar
StartChar: Y
Encoding: 89 89 103
Width: 632
GlyphClass: 2
Flags: W
AnchorPoint: "Anchor-1" 316 668 basechar 0
AnchorPoint: "Anchor-0" 317 0 basechar 0
LayerCount: 2
Fore
SplineSet
264 265 m 1,0,-1
 21 668 l 1,1,-1
 145 668 l 1,2,-1
 315 375 l 1,3,-1
 319 375 l 1,4,-1
 489 668 l 1,5,-1
 611 668 l 1,6,-1
 369 265 l 1,7,-1
 369 0 l 1,8,-1
 264 0 l 1,9,-1
 264 265 l 1,0,-1
EndSplineSet
EndChar
StartChar: a
Encoding: 97 97 112
Width: 632
GlyphClass: 2
Flags: W
AnchorPoint: "Anchor-2" 540 10 basechar 0
AnchorPoint: "Anchor-1" 313 496 basechar 0
AnchorPoint: "Anchor-0" 313 0 basechar 0
LayerCount: 2
Fore
SplineSet
120.5 25.5 m 128,-1,1
 72 63 72 63 72 128 c 0,2,3
 72 215 72 215 157 257.5 c 128,-1,4
 242 300 242 300 418 311 c 1,5,-1
 418 323 l 2,6,7
 418 432 418 432 308 432 c 0,8,9
 265 432 265 432 236 411.5 c 128,-1,10
 207 391 207 391 198 359 c 1,11,-1
 102 390 l 1,12,13
 124 445 124 445 179.5 477 c 128,-1,14
 235 509 235 509 312 509 c 0,15,16
 522 509 522 509 522 313 c 2,17,-1
 522 190 l 2,18,19
 522 74 522 74 540 0 c 1,20,-1
 443 0 l 1,21,-1
 424 70 l 1,22,23
 401 31 401 31 356.5 9.5 c 128,-1,24
 312 -12 312 -12 247 -12 c 0,25,0
 169 -12 169 -12 120.5 25.5 c 128,-1,1
381 97 m 128,-1,27
 418 129 418 129 418 200 c 2,28,-1
 418 242 l 1,29,30
 298 234 298 234 241 209.5 c 128,-1,31
 184 185 184 185 184 137 c 0,32,33
 184 104 184 104 209.5 84.5 c 128,-1,34
 235 65 235 65 279 65 c 0,35,26
 344 65 344 65 381 97 c 128,-1,27
EndSplineSet
Substitution2: "Single Substitution lookup 14 subtable" ordfeminine
AlternateSubs2: "'aalt' Access All Alternates in Latin lookup 0 subtable" ordfeminine
EndChar
StartChar: b
Encoding: 98 98 123
Width: 632
GlyphClass: 2
Flags: W
AnchorPoint: "Anchor-1" 310 496 basechar 0
AnchorPoint: "Anchor-0" 310 0 basechar 0
LayerCount: 2
Fore
SplineSet
259.5 12 m 128,-1,1
 214 36 214 36 189 76 c 1,2,-1
 174 0 l 1,3,-1
 80 0 l 1,4,-1
 80 708 l 1,5,-1
 190 708 l 1,6,-1
 190 418 l 1,7,8
 215 460 215 460 260.5 484.5 c 128,-1,9
 306 509 306 509 357 509 c 0,10,11
 424 509 424 509 475.5 478 c 128,-1,12
 527 447 527 447 555.5 388.5 c 128,-1,13
 584 330 584 330 584 250 c 256,14,15
 584 170 584 170 555.5 110.5 c 128,-1,16
 527 51 527 51 475.5 19.5 c 128,-1,17
 424 -12 424 -12 357 -12 c 0,18,0
 305 -12 305 -12 259.5 12 c 128,-1,1
431.5 122.5 m 128,-1,20
 471 169 471 169 471 250 c 256,21,22
 471 331 471 331 431.5 376.5 c 128,-1,23
 392 422 392 422 328 422 c 0,24,25
 265 422 265 422 225.5 376.5 c 128,-1,26
 186 331 186 331 186 249 c 0,27,28
 186 165 186 165 225 120.5 c 128,-1,29
 264 76 264 76 328 76 c 256,30,19
 392 76 392 76 431.5 122.5 c 128,-1,20
EndSplineSet
EndChar
StartChar: c
Encoding: 99 99 124
Width: 632
GlyphClass: 2
Flags: W
AnchorPoint: "Anchor-1" 349 496 basechar 0
AnchorPoint: "Anchor-0" 343 0 basechar 0
LayerCount: 2
Fore
SplineSet
205 21 m 128,-1,1
 147 54 147 54 116.5 113 c 128,-1,2
 86 172 86 172 86 248 c 0,3,4
 86 323 86 323 118 382.5 c 128,-1,5
 150 442 150 442 208.5 475.5 c 128,-1,6
 267 509 267 509 344 509 c 0,7,8
 418 509 418 509 475 477.5 c 128,-1,9
 532 446 532 446 562 388 c 1,10,-1
 469 354 l 1,11,12
 453 387 453 387 422 404.5 c 128,-1,13
 391 422 391 422 349 422 c 0,14,15
 285 422 285 422 241 378 c 128,-1,16
 197 334 197 334 197 248 c 256,17,18
 197 162 197 162 241 118.5 c 128,-1,19
 285 75 285 75 347 75 c 0,20,21
 389 75 389 75 422 91.5 c 128,-1,22
 455 108 455 108 471 136 c 1,23,-1
 563 102 l 1,24,25
 534 51 534 51 475.5 19.5 c 128,-1,26
 417 -12 417 -12 342 -12 c 0,27,0
 263 -12 263 -12 205 21 c 128,-1,1
EndSplineSet
EndChar
StartChar: d
Encoding: 100 100 129
Width: 632
GlyphClass: 2
Flags: W
AnchorPoint: "Anchor-3" 573 497 basechar 0
AnchorPoint: "Anchor-1" 323 796 basechar 0
AnchorPoint: "Anchor-0" 323 0 basechar 0
LayerCount: 2
Fore
SplineSet
157.5 20 m 128,-1,1
 106 52 106 52 77.5 111 c 128,-1,2
 49 170 49 170 49 250 c 256,3,4
 49 330 49 330 77.5 388.5 c 128,-1,5
 106 447 106 447 157.5 478 c 128,-1,6
 209 509 209 509 276 509 c 0,7,8
 328 509 328 509 373 485 c 128,-1,9
 418 461 418 461 443 418 c 1,10,-1
 443 708 l 1,11,-1
 552 708 l 1,12,-1
 552 189 l 2,13,14
 552 87 552 87 569 0 c 1,15,-1
 465 0 l 1,16,-1
 444 74 l 1,17,18
 414 33 414 33 370.5 10.5 c 128,-1,19
 327 -12 327 -12 276 -12 c 0,20,0
 209 -12 209 -12 157.5 20 c 128,-1,1
408 120.5 m 128,-1,22
 447 165 447 165 447 249 c 0,23,24
 447 331 447 331 407.5 376.5 c 128,-1,25
 368 422 368 422 305 422 c 0,26,27
 241 422 241 422 201 376.5 c 128,-1,28
 161 331 161 331 161 250 c 256,29,30
 161 169 161 169 201 122.5 c 128,-1,31
 241 76 241 76 305 76 c 256,32,21
 369 76 369 76 408 120.5 c 128,-1,22
EndSplineSet
EndChar
StartChar: e
Encoding: 101 101 133
Width: 632
GlyphClass: 2
Flags: W
AnchorPoint: "Anchor-2" 492 10 basechar 0
AnchorPoint: "Anchor-1" 330 496 basechar 0
AnchorPoint: "Anchor-0" 317 0 basechar 0
LayerCount: 2
Fore
SplineSet
191.5 20.5 m 128,-1,1
 133 53 133 53 101.5 112 c 128,-1,2
 70 171 70 171 70 249 c 0,3,4
 70 326 70 326 103.5 385 c 128,-1,5
 137 444 137 444 195 476.5 c 128,-1,6
 253 509 253 509 324 509 c 0,7,8
 401 509 401 509 458 471 c 128,-1,9
 515 433 515 433 543.5 368 c 128,-1,10
 572 303 572 303 566 225 c 1,11,-1
 178 225 l 1,12,13
 184 147 184 147 227.5 111 c 128,-1,14
 271 75 271 75 331 75 c 0,15,16
 407 75 407 75 445 125 c 1,17,-1
 537 91 l 1,18,19
 504 43 504 43 451.5 15.5 c 128,-1,20
 399 -12 399 -12 328 -12 c 0,21,0
 250 -12 250 -12 191.5 20.5 c 128,-1,1
423.5 387 m 128,-1,23
 387 424 387 424 326 424 c 0,24,25
 269 424 269 424 229 393 c 128,-1,26
 189 362 189 362 178 295 c 1,27,-1
 462 295 l 1,28,22
 460 350 460 350 423.5 387 c 128,-1,23
EndSplineSet
EndChar
StartChar: f
Encoding: 102 102 142
Width: 632
GlyphClass: 2
Flags: W
AnchorPoint: "Anchor-1" 296 796 basechar 0
AnchorPoint: "Anchor-0" 296 0 basechar 0
LayerCount: 2
Fore
SplineSet
241 412 m 1,0,-1
 96 412 l 1,1,-1
 96 496 l 1,2,-1
 241 496 l 1,3,-1
 241 581 l 2,4,5
 241 635 241 635 256 664.5 c 128,-1,6
 271 694 271 694 304.5 705.5 c 128,-1,7
 338 717 338 717 397 717 c 2,8,-1
 575 717 l 1,9,-1
 575 629 l 1,10,-1
 411 629 l 2,11,12
 374 629 374 629 362.5 618.5 c 128,-1,13
 351 608 351 608 351 573 c 2,14,-1
 351 496 l 1,15,-1
 483 496 l 1,16,-1
 483 412 l 1,17,-1
 351 412 l 1,18,-1
 351 0 l 1,19,-1
 241 0 l 1,20,-1
 241 412 l 1,0,-1
EndSplineSet
EndChar
StartChar: g
Encoding: 103 103 143
Width: 632
GlyphClass: 2
Flags: W
AnchorPoint: "Anchor-1" 314 496 basechar 0
AnchorPoint: "Anchor-0" 318 -251 basechar 0
LayerCount: 2
Fore
SplineSet
182 -168 m 128,-1,1
 123 -141 123 -141 99 -82 c 1,2,-1
 191 -45 l 1,3,4
 203 -75 203 -75 235 -92 c 128,-1,5
 267 -109 267 -109 316 -109 c 0,6,7
 373 -109 373 -109 408.5 -81.5 c 128,-1,8
 444 -54 444 -54 444 5 c 2,9,-1
 444 97 l 1,10,11
 413 57 413 57 370 34.5 c 128,-1,12
 327 12 327 12 275 12 c 0,13,14
 214 12 214 12 163.5 41.5 c 128,-1,15
 113 71 113 71 83 126.5 c 128,-1,16
 53 182 53 182 53 257 c 0,17,18
 53 337 53 337 82.5 394 c 128,-1,19
 112 451 112 451 162 480 c 128,-1,20
 212 509 212 509 272 509 c 0,21,22
 326 509 326 509 371.5 485 c 128,-1,23
 417 461 417 461 444 419 c 1,24,-1
 461 496 l 1,25,-1
 553 496 l 1,26,-1
 553 19 l 2,27,28
 553 -87 553 -87 489 -141 c 128,-1,29
 425 -195 425 -195 313 -195 c 0,30,0
 241 -195 241 -195 182 -168 c 128,-1,1
410 140.5 m 128,-1,32
 448 181 448 181 448 259 c 256,33,34
 448 337 448 337 409.5 379.5 c 128,-1,35
 371 422 371 422 308 422 c 0,36,37
 244 422 244 422 205 380 c 128,-1,38
 166 338 166 338 166 261 c 256,39,40
 166 184 166 184 205.5 142 c 128,-1,41
 245 100 245 100 308 100 c 0,42,31
 372 100 372 100 410 140.5 c 128,-1,32
EndSplineSet
EndChar
StartChar: k
Encoding: 107 107 161
Width: 632
GlyphClass: 2
Flags: W
AnchorPoint: "Anchor-1" 326 796 basechar 0
AnchorPoint: "Anchor-0" 328 0 basechar 0
LayerCount: 2
Fore
SplineSet
111 708 m 1,0,-1
 221 708 l 1,1,-1
 221 274 l 1,2,-1
 444 496 l 1,3,-1
 576 496 l 1,4,-1
 367 291 l 1,5,-1
 598 0 l 1,6,-1
 466 0 l 1,7,-1
 293 217 l 1,8,-1
 221 146 l 1,9,-1
 221 0 l 1,10,-1
 111 0 l 1,11,-1
 111 708 l 1,0,-1
EndSplineSet
EndChar
StartChar: l
Encoding: 108 108 163
Width: 632
GlyphClass: 2
Flags: W
AnchorPoint: "Anchor-3" 375 498 basechar 0
AnchorPoint: "Anchor-1" 284 796 basechar 0
AnchorPoint: "Anchor-0" 380 0 basechar 0
LayerCount: 2
Fore
SplineSet
265 10 m 128,-1,1
 236 20 236 20 223.5 45.5 c 128,-1,2
 211 71 211 71 211 120 c 2,3,-1
 211 624 l 1,4,-1
 96 624 l 1,5,-1
 96 708 l 1,6,-1
 321 708 l 1,7,-1
 321 146 l 2,8,9
 321 122 321 122 325 110 c 128,-1,10
 329 98 329 98 341 93.5 c 128,-1,11
 353 89 353 89 379 89 c 2,12,-1
 556 89 l 1,13,-1
 556 0 l 1,14,-1
 347 0 l 2,15,0
 294 0 294 0 265 10 c 128,-1,1
EndSplineSet
EndChar
StartChar: n
Encoding: 110 110 168
Width: 632
GlyphClass: 2
Flags: W
AnchorPoint: "Anchor-1" 317 496 basechar 0
AnchorPoint: "Anchor-0" 314 0 basechar 0
LayerCount: 2
Fore
SplineSet
94 496 m 1,0,-1
 188 496 l 1,1,-1
 203 424 l 1,2,3
 223 457 223 457 266 483 c 128,-1,4
 309 509 309 509 366 509 c 0,5,6
 455 509 455 509 498 460 c 128,-1,7
 541 411 541 411 541 323 c 2,8,-1
 541 0 l 1,9,-1
 431 0 l 1,10,-1
 431 297 l 2,11,12
 431 422 431 422 329 422 c 0,13,14
 270 422 270 422 237 380.5 c 128,-1,15
 204 339 204 339 204 263 c 2,16,-1
 204 0 l 1,17,-1
 94 0 l 1,18,-1
 94 496 l 1,0,-1
EndSplineSet
EndChar
StartChar: q
Encoding: 113 113 184
Width: 632
GlyphClass: 2
Flags: W
AnchorPoint: "Anchor-1" 326 496 basechar 0
AnchorPoint: "Anchor-0" 326 0 basechar 0
LayerCount: 2
Fore
SplineSet
462 -142 m 128,-1,1
 428 -110 428 -110 428 -31 c 2,2,-1
 428 78 l 1,3,4
 403 36 403 36 359.5 12 c 128,-1,5
 316 -12 316 -12 264 -12 c 0,6,7
 201 -12 201 -12 152 19 c 128,-1,8
 103 50 103 50 76 109 c 128,-1,9
 49 168 49 168 49 248 c 256,10,11
 49 328 49 328 76.5 387 c 128,-1,12
 104 446 104 446 153.5 477.5 c 128,-1,13
 203 509 203 509 267 509 c 0,14,15
 317 509 317 509 360 484.5 c 128,-1,16
 403 460 403 460 428 418 c 1,17,-1
 444 496 l 1,18,-1
 537 496 l 1,19,-1
 537 -5 l 2,20,21
 537 -42 537 -42 547 -60 c 128,-1,22
 557 -78 557 -78 584 -78 c 0,23,24
 607 -78 607 -78 632 -66 c 1,25,-1
 632 -158 l 1,26,27
 598 -174 598 -174 554 -174 c 0,28,0
 496 -174 496 -174 462 -142 c 128,-1,1
395 121 m 128,-1,30
 432 166 432 166 432 249 c 0,31,32
 432 331 432 331 395 376.5 c 128,-1,33
 358 422 358 422 298 422 c 0,34,35
 237 422 237 422 199 376.5 c 128,-1,36
 161 331 161 331 161 249 c 256,37,38
 161 167 161 167 199 121.5 c 128,-1,39
 237 76 237 76 298 76 c 0,40,29
 358 76 358 76 395 121 c 128,-1,30
EndSplineSet
EndChar
StartChar: s
Encoding: 115 115 188
Width: 632
GlyphClass: 2
Flags: W
AnchorPoint: "Anchor-1" 318 496 basechar 0
AnchorPoint: "Anchor-0" 324 0 basechar 0
LayerCount: 2
Fore
SplineSet
176.5 20.5 m 128,-1,1
 113 53 113 53 88 113 c 1,2,-1
 184 149 l 1,3,4
 195 112 195 112 232 91.5 c 128,-1,5
 269 71 269 71 324 71 c 0,6,7
 376 71 376 71 408 89.5 c 128,-1,8
 440 108 440 108 440 139 c 0,9,10
 440 166 440 166 416.5 181.5 c 128,-1,11
 393 197 393 197 342 207 c 2,12,-1
 258 223 l 2,13,14
 105 253 105 253 105 359 c 0,15,16
 105 428 105 428 166 468.5 c 128,-1,17
 227 509 227 509 317 509 c 0,18,19
 392 509 392 509 447.5 482 c 128,-1,20
 503 455 503 455 528 401 c 1,21,-1
 433 365 l 1,22,23
 421 395 421 395 390 411 c 128,-1,24
 359 427 359 427 315 427 c 0,25,26
 266 427 266 427 237.5 410.5 c 128,-1,27
 209 394 209 394 209 365 c 0,28,29
 209 342 209 342 228.5 329 c 128,-1,30
 248 316 248 316 288 307 c 2,31,-1
 375 290 l 2,32,33
 464 273 464 273 504 241 c 128,-1,34
 544 209 544 209 544 146 c 0,35,36
 544 71 544 71 482 29.5 c 128,-1,37
 420 -12 420 -12 323 -12 c 0,38,0
 240 -12 240 -12 176.5 20.5 c 128,-1,1
EndSplineSet
EndChar
StartChar: y
Encoding: 121 121 214
Width: 632
GlyphClass: 2
Flags: W
AnchorPoint: "Anchor-1" 316 496 basechar 0
AnchorPoint: "Anchor-0" 315 0 basechar 0
LayerCount: 2
Fore
SplineSet
86 -78 m 1,0,-1
 160 -78 l 2,1,2
 200 -78 200 -78 217 -69.5 c 128,-1,3
 234 -61 234 -61 246 -33 c 2,4,-1
 265 8 l 1,5,-1
 56 496 l 1,6,-1
 173 496 l 1,7,-1
 316 135 l 1,8,-1
 320 135 l 1,9,-1
 459 496 l 1,10,-1
 577 496 l 1,11,-1
 347 -36 l 2,12,13
 325 -88 325 -88 306.5 -113.5 c 128,-1,14
 288 -139 288 -139 257.5 -150.5 c 128,-1,15
 227 -162 227 -162 173 -162 c 2,16,-1
 86 -162 l 1,17,-1
 86 -78 l 1,0,-1
EndSplineSet
EndChar
StartChar: z
Encoding: 122 122 219
Width: 632
GlyphClass: 2
Flags: W
AnchorPoint: "Anchor-1" 327 496 basechar 0
AnchorPoint: "Anchor-0" 314 0 basechar 0
LayerCount: 2
Fore
SplineSet
87 89 m 1,0,-1
 399 407 l 1,1,-1
 99 407 l 1,2,-1
 99 496 l 1,3,-1
 543 496 l 1,4,-1
 543 407 l 1,5,-1
 232 89 l 1,6,-1
 555 89 l 1,7,-1
 555 0 l 1,8,-1
 87 0 l 1,9,-1
 87 89 l 1,0,-1
EndSplineSet
EndChar
StartChar: exclamdown
Encoding: 161 161 255
Width: 632
GlyphClass: 1
Flags: W
LayerCount: 2
Fore
SplineSet
258 2 m 1,0,-1
 280 287 l 1,1,-1
 351 287 l 1,2,-1
 374 2 l 1,3,-1
 374 -170 l 1,4,-1
 258 -170 l 1,5,-1
 258 2 l 1,0,-1
262.5 381.5 m 128,-1,7
 240 404 240 404 240 435 c 256,8,9
 240 466 240 466 262.5 488 c 128,-1,10
 285 510 285 510 316 510 c 256,11,12
 347 510 347 510 369 488 c 128,-1,13
 391 466 391 466 391 435 c 0,14,15
 391 403 391 403 369 381 c 128,-1,16
 347 359 347 359 316 359 c 256,17,6
 285 359 285 359 262.5 381.5 c 128,-1,7
EndSplineSet
EndChar
StartChar: cent
Encoding: 162 162 302
Width: 632
GlyphClass: 1
Flags: W
LayerCount: 2
Fore
SplineSet
155.5 72.5 m 128,-1,1
 102 145 102 145 102 249 c 0,2,3
 102 315 102 315 127 370 c 128,-1,4
 152 425 152 425 199 460.5 c 128,-1,5
 246 496 246 496 308 504 c 1,6,-1
 308 586 l 1,7,-1
 365 586 l 1,8,-1
 365 505 l 1,9,10
 430 500 430 500 476 468 c 128,-1,11
 522 436 522 436 546 388 c 1,12,-1
 453 355 l 1,13,14
 422 408 422 408 365 416 c 1,15,-1
 365 78 l 1,16,17
 397 82 397 82 419.5 98 c 128,-1,18
 442 114 442 114 454 136 c 1,19,-1
 546 102 l 1,20,21
 521 56 521 56 473.5 25.5 c 128,-1,22
 426 -5 426 -5 365 -11 c 1,23,-1
 365 -90 l 1,24,-1
 308 -90 l 1,25,-1
 308 -10 l 1,26,0
 209 0 209 0 155.5 72.5 c 128,-1,1
240 355.5 m 128,-1,28
 214 312 214 312 214 249 c 256,29,30
 214 186 214 186 238.5 140.5 c 128,-1,31
 263 95 263 95 308 82 c 1,32,-1
 308 413 l 1,33,27
 266 399 266 399 240 355.5 c 128,-1,28
EndSplineSet
EndChar
StartChar: sterling
Encoding: 163 163 307
Width: 632
GlyphClass: 1
Flags: W
LayerCount: 2
Fore
SplineSet
205 234 m 0,1,2
 205 270 205 270 189 311 c 1,3,-1
 77 311 l 1,4,-1
 77 369 l 1,5,-1
 158 369 l 1,6,7
 138 410 138 410 127 444 c 128,-1,8
 116 478 116 478 116 509 c 0,9,10
 116 589 116 589 178.5 634.5 c 128,-1,11
 241 680 241 680 342 680 c 0,12,13
 426 680 426 680 487.5 642.5 c 128,-1,14
 549 605 549 605 572 540 c 1,15,-1
 469 506 l 1,16,17
 457 550 457 550 424 570.5 c 128,-1,18
 391 591 391 591 345 591 c 0,19,20
 297 591 297 591 263 569.5 c 128,-1,21
 229 548 229 548 229 503 c 0,22,23
 229 476 229 476 239 451 c 128,-1,24
 249 426 249 426 276 369 c 1,25,-1
 461 369 l 1,26,-1
 461 311 l 1,27,-1
 303 311 l 1,28,29
 317 273 317 273 317 241 c 0,30,31
 317 152 317 152 225 94 c 1,32,33
 251 108 251 108 288 108 c 0,34,35
 315 108 315 108 369 94 c 0,36,37
 422 79 422 79 454 79 c 0,38,39
 477 79 477 79 499 85 c 128,-1,40
 521 91 521 91 553 106 c 1,41,-1
 584 20 l 1,42,43
 548 3 548 3 515.5 -4.5 c 128,-1,44
 483 -12 483 -12 447 -12 c 0,45,46
 423 -12 423 -12 402.5 -7.5 c 128,-1,47
 382 -3 382 -3 346 7 c 0,48,49
 287 26 287 26 248 26 c 0,50,51
 185 26 185 26 117 -11 c 1,52,-1
 78 71 l 1,53,0
 205 136 205 136 205 234 c 0,1,2
EndSplineSet
EndChar
StartChar: currency
Encoding: 164 164 303
Width: 632
GlyphClass: 1
Flags: W
LayerCount: 2
Fore
SplineSet
77 122 m 1,0,-1
 143 188 l 1,1,2
 98 247 98 247 98 321 c 256,3,4
 98 395 98 395 143 453 c 1,5,-1
 77 519 l 1,6,-1
 118 560 l 1,7,-1
 184 494 l 1,8,9
 245 539 245 539 316 539 c 0,10,11
 389 539 389 539 448 494 c 1,12,-1
 514 560 l 1,13,-1
 556 519 l 1,14,-1
 490 453 l 1,15,16
 535 395 535 395 535 321 c 256,17,18
 535 247 535 247 490 188 c 1,19,-1
 556 122 l 1,20,-1
 514 82 l 1,21,-1
 448 147 l 1,22,23
 390 103 390 103 316 103 c 0,24,25
 244 103 244 103 184 147 c 1,26,-1
 118 82 l 1,27,-1
 77 122 l 1,0,-1
380.5 209.5 m 128,-1,29
 410 227 410 227 427 256.5 c 128,-1,30
 444 286 444 286 444 321 c 0,31,32
 444 374 444 374 406.5 411.5 c 128,-1,33
 369 449 369 449 316 449 c 256,34,35
 263 449 263 449 226 411.5 c 128,-1,36
 189 374 189 374 189 321 c 0,37,38
 189 286 189 286 206 256.5 c 128,-1,39
 223 227 223 227 252 209.5 c 128,-1,40
 281 192 281 192 316 192 c 256,41,28
 351 192 351 192 380.5 209.5 c 128,-1,29
EndSplineSet
EndChar
StartChar: brokenbar
Encoding: 166 166 297
Width: 632
GlyphClass: 1
Flags: W
LayerCount: 2
Fore
SplineSet
268 233 m 1,0,-1
 364 233 l 1,1,-1
 364 -162 l 1,2,-1
 268 -162 l 1,3,-1
 268 233 l 1,0,-1
268 838 m 1,4,-1
 364 838 l 1,5,-1
 364 443 l 1,6,-1
 268 443 l 1,7,-1
 268 838 l 1,4,-1
EndSplineSet
EndChar
StartChar: section
Encoding: 167 167 291
Width: 632
GlyphClass: 1
Flags: W
LayerCount: 2
Fore
SplineSet
182 -138 m 128,-1,1
 130 -103 130 -103 110 -41 c 1,2,-1
 208 -9 l 1,3,4
 228 -87 228 -87 315 -87 c 0,5,6
 356 -87 356 -87 381 -68.5 c 128,-1,7
 406 -50 406 -50 406 -24 c 0,8,9
 406 -2 406 -2 387.5 15.5 c 128,-1,10
 369 33 369 33 313 62 c 2,11,-1
 210 114 l 2,12,13
 137 151 137 151 104 190 c 128,-1,14
 71 229 71 229 71 284 c 0,15,16
 71 369 71 369 178 422 c 1,17,18
 147 447 147 447 134.5 472 c 128,-1,19
 122 497 122 497 122 526 c 0,20,21
 122 571 122 571 148.5 606 c 128,-1,22
 175 641 175 641 221 660.5 c 128,-1,23
 267 680 267 680 323 680 c 0,24,25
 399 680 399 680 451 645.5 c 128,-1,26
 503 611 503 611 523 548 c 1,27,-1
 425 517 l 1,28,29
 405 595 405 595 318 595 c 0,30,31
 277 595 277 595 252 576 c 128,-1,32
 227 557 227 557 227 531 c 0,33,34
 227 510 227 510 246 492 c 128,-1,35
 265 474 265 474 319 446 c 2,36,-1
 422 393 l 2,37,38
 496 356 496 356 528.5 317.5 c 128,-1,39
 561 279 561 279 561 224 c 0,40,41
 561 181 561 181 534.5 147 c 128,-1,42
 508 113 508 113 455 85 c 1,43,44
 485 60 485 60 497.5 36 c 128,-1,45
 510 12 510 12 510 -18 c 0,46,47
 510 -63 510 -63 483.5 -98.5 c 128,-1,48
 457 -134 457 -134 411 -153.5 c 128,-1,49
 365 -173 365 -173 310 -173 c 0,50,0
 234 -173 234 -173 182 -138 c 128,-1,1
457 215 m 0,52,53
 457 243 457 243 437.5 262.5 c 128,-1,54
 418 282 418 282 373 306 c 2,55,-1
 248 370 l 1,56,57
 175 335 175 335 175 292 c 0,58,59
 175 265 175 265 195 245 c 128,-1,60
 215 225 215 225 260 202 c 2,61,-1
 384 138 l 1,62,51
 457 170 457 170 457 215 c 0,52,53
EndSplineSet
EndChar
StartChar: ordfeminine
Encoding: 170 170 223
Width: 632
GlyphClass: 1
Flags: W
LayerCount: 2
Fore
SplineSet
187.5 361.5 m 128,-1,1
 156 388 156 388 156 433 c 0,2,3
 156 492 156 492 210 520.5 c 128,-1,4
 264 549 264 549 385 557 c 1,5,6
 385 593 385 593 371 613 c 128,-1,7
 357 633 357 633 316 633 c 0,8,9
 289 633 289 633 269.5 622 c 128,-1,10
 250 611 250 611 244 589 c 1,11,-1
 173 611 l 1,12,13
 188 649 188 649 227 671 c 128,-1,14
 266 693 266 693 322 693 c 0,15,16
 464 693 464 693 464 551 c 2,17,-1
 464 463 l 2,18,19
 464 422 464 422 466.5 395 c 128,-1,20
 469 368 469 368 475 343 c 1,21,-1
 403 343 l 1,22,-1
 390 389 l 1,23,24
 356 335 356 335 275 335 c 0,25,0
 219 335 219 335 187.5 361.5 c 128,-1,1
360.5 419.5 m 128,-1,27
 385 445 385 445 385 482 c 2,28,-1
 385 502 l 1,29,30
 305 499 305 499 272.5 483.5 c 128,-1,31
 240 468 240 468 240 437 c 0,32,33
 240 394 240 394 294 394 c 0,34,26
 336 394 336 394 360.5 419.5 c 128,-1,27
EndSplineSet
EndChar
StartChar: guillemotleft
Encoding: 171 171 280
Width: 632
GlyphClass: 1
Flags: W
LayerCount: 2
Fore
SplineSet
290 250 m 1,0,-1
 438 460 l 1,1,-1
 562 460 l 1,2,-1
 414 250 l 1,3,-1
 562 40 l 1,4,-1
 438 40 l 1,5,-1
 290 250 l 1,0,-1
71 250 m 1,6,-1
 219 460 l 1,7,-1
 343 460 l 1,8,-1
 194 250 l 1,9,-1
 343 40 l 1,10,-1
 219 40 l 1,11,-1
 71 250 l 1,6,-1
EndSplineSet
EndChar
StartChar: registered
Encoding: 174 174 293
Width: 632
GlyphClass: 1
Flags: W
LayerCount: 2
Fore
SplineSet
162.5 33.5 m 128,-1,1
 95 80 95 80 57.5 159 c 128,-1,2
 20 238 20 238 20 334 c 0,3,4
 20 429 20 429 57.5 508 c 128,-1,5
 95 587 95 587 162.5 633.5 c 128,-1,6
 230 680 230 680 316 680 c 256,7,8
 402 680 402 680 469.5 633.5 c 128,-1,9
 537 587 537 587 574.5 508 c 128,-1,10
 612 429 612 429 612 334 c 0,11,12
 612 238 612 238 574.5 159 c 128,-1,13
 537 80 537 80 469.5 33.5 c 128,-1,14
 402 -13 402 -13 316 -13 c 256,15,0
 230 -13 230 -13 162.5 33.5 c 128,-1,1
439.5 79.5 m 128,-1,17
 494 118 494 118 524.5 185 c 128,-1,18
 555 252 555 252 555 334 c 256,19,20
 555 416 555 416 524.5 483 c 128,-1,21
 494 550 494 550 439.5 588 c 128,-1,22
 385 626 385 626 316 626 c 256,23,24
 247 626 247 626 193 588 c 128,-1,25
 139 550 139 550 108.5 483 c 128,-1,26
 78 416 78 416 78 334 c 256,27,28
 78 252 78 252 108.5 185 c 128,-1,29
 139 118 139 118 193 79.5 c 128,-1,30
 247 41 247 41 316 41 c 256,31,16
 385 41 385 41 439.5 79.5 c 128,-1,17
193 529 m 1,32,-1
 315 529 l 2,33,34
 378 529 378 529 413.5 501 c 128,-1,35
 449 473 449 473 449 416 c 0,36,37
 449 380 449 380 431 352 c 128,-1,38
 413 324 413 324 373 311 c 1,39,-1
 466 162 l 1,40,-1
 386 162 l 1,41,-1
 302 301 l 1,42,-1
 263 301 l 1,43,-1
 263 162 l 1,44,-1
 193 162 l 1,45,-1
 193 529 l 1,32,-1
375 416 m 0,47,48
 375 444 375 444 358 456 c 128,-1,49
 341 468 341 468 309 468 c 2,50,-1
 263 468 l 1,51,-1
 263 363 l 1,52,-1
 311 363 l 2,53,46
 375 363 375 363 375 416 c 0,47,48
EndSplineSet
EndChar
StartChar: degree
Encoding: 176 176 295
Width: 632
GlyphClass: 1
Flags: W
LayerCount: 2
Fore
SplineSet
244 410.5 m 128,-1,1
 211 430 211 430 191.5 463 c 128,-1,2
 172 496 172 496 172 535 c 256,3,4
 172 574 172 574 191.5 607.5 c 128,-1,5
 211 641 211 641 244 660.5 c 128,-1,6
 277 680 277 680 316 680 c 256,7,8
 355 680 355 680 388.5 660.5 c 128,-1,9
 422 641 422 641 441.5 607.5 c 128,-1,10
 461 574 461 574 461 535 c 256,11,12
 461 496 461 496 441.5 463 c 128,-1,13
 422 430 422 430 388.5 410.5 c 128,-1,14
 355 391 355 391 316 391 c 256,15,0
 277 391 277 391 244 410.5 c 128,-1,1
370 481.5 m 128,-1,17
 392 504 392 504 392 535 c 0,18,19
 392 567 392 567 370 589 c 128,-1,20
 348 611 348 611 316 611 c 0,21,22
 285 611 285 611 262.5 589 c 128,-1,23
 240 567 240 567 240 535 c 0,24,25
 240 504 240 504 262.5 481.5 c 128,-1,26
 285 459 285 459 316 459 c 0,27,16
 348 459 348 459 370 481.5 c 128,-1,17
EndSplineSet
EndChar
StartChar: plusminus
Encoding: 177 177 321
Width: 632
GlyphClass: 1
Flags: W
LayerCount: 2
Fore
SplineSet
270 279 m 1,0,-1
 68 279 l 1,1,-1
 68 361 l 1,2,-1
 270 361 l 1,3,-1
 270 496 l 1,4,-1
 363 496 l 1,5,-1
 363 361 l 1,6,-1
 565 361 l 1,7,-1
 565 279 l 1,8,-1
 363 279 l 1,9,-1
 363 146 l 1,10,-1
 270 146 l 1,11,-1
 270 279 l 1,0,-1
68 95 m 1,12,-1
 565 95 l 1,13,-1
 565 0 l 1,14,-1
 68 0 l 1,15,-1
 68 95 l 1,12,-1
EndSplineSet
EndChar
StartChar: uni00B2
Encoding: 178 178 245
Width: 632
GlyphClass: 1
Flags: W
LayerCount: 2
Fore
SplineSet
332 572 m 128,-1,1
 381 625 381 625 381 670 c 0,2,3
 381 697 381 697 364 711.5 c 128,-1,4
 347 726 347 726 319 726 c 0,5,6
 293 726 293 726 273.5 711 c 128,-1,7
 254 696 254 696 250 665 c 1,8,-1
 176 686 l 1,9,10
 188 733 188 733 226 759.5 c 128,-1,11
 264 786 264 786 323 786 c 0,12,13
 386 786 386 786 424 756 c 128,-1,14
 462 726 462 726 462 673 c 0,15,16
 462 615 462 615 415 559 c 128,-1,17
 368 503 368 503 269 431 c 1,18,-1
 470 431 l 1,19,-1
 470 364 l 1,20,-1
 163 364 l 1,21,-1
 163 428 l 1,22,0
 283 519 283 519 332 572 c 128,-1,1
EndSplineSet
EndChar
StartChar: uni00B9
Encoding: 185 185 244
Width: 632
GlyphClass: 1
Flags: W
LayerCount: 2
Fore
SplineSet
332 670 m 1,0,-1
 241 670 l 1,1,-1
 241 726 l 1,2,3
 327 726 327 726 346 779 c 1,4,-1
 409 779 l 1,5,-1
 409 364 l 1,6,-1
 332 364 l 1,7,-1
 332 670 l 1,0,-1
EndSplineSet
EndChar
StartChar: onequarter
Encoding: 188 188 242
Width: 632
GlyphClass: 3
Flags: W
LayerCount: 2
Fore
SplineSet
132 569 m 1,0,-1
 64 569 l 1,1,-1
 64 631 l 1,2,3
 102 630 102 630 121 638.5 c 128,-1,4
 140 647 140 647 148 668 c 1,5,-1
 207 668 l 1,6,-1
 207 361 l 1,7,-1
 132 361 l 1,8,-1
 132 569 l 1,0,-1
453 668 m 1,9,-1
 539 668 l 1,10,-1
 176 0 l 1,11,-1
 89 0 l 1,12,-1
 453 668 l 1,9,-1
475 61 m 1,13,-1
 320 61 l 1,14,-1
 320 122 l 1,15,-1
 470 308 l 1,16,-1
 546 308 l 1,17,-1
 546 125 l 1,18,-1
 593 125 l 1,19,-1
 593 61 l 1,20,-1
 546 61 l 1,21,-1
 546 0 l 1,22,-1
 475 0 l 1,23,-1
 475 61 l 1,13,-1
476 125 m 1,24,-1
 476 221 l 1,25,-1
 474 221 l 1,26,-1
 398 125 l 1,27,-1
 476 125 l 1,24,-1
EndSplineSet
Ligature2: "'frac' Diagonal Fractions in Latin lookup 7 subtable" one slash four
EndChar
StartChar: threequarters
Encoding: 190 190 243
Width: 632
GlyphClass: 3
Flags: W
LayerCount: 2
Fore
SplineSet
471 668 m 1,0,-1
 557 668 l 1,1,-1
 194 0 l 1,2,-1
 107 0 l 1,3,-1
 471 668 l 1,0,-1
492 61 m 1,4,-1
 337 61 l 1,5,-1
 337 122 l 1,6,-1
 487 308 l 1,7,-1
 563 308 l 1,8,-1
 563 125 l 1,9,-1
 610 125 l 1,10,-1
 610 61 l 1,11,-1
 563 61 l 1,12,-1
 563 0 l 1,13,-1
 492 0 l 1,14,-1
 492 61 l 1,4,-1
493 125 m 1,15,-1
 493 221 l 1,16,-1
 491 221 l 1,17,-1
 415 125 l 1,18,-1
 493 125 l 1,15,-1
68 381 m 128,-1,20
 37 399 37 399 23 431 c 1,21,-1
 93 455 l 1,22,23
 97 439 97 439 111 430 c 128,-1,24
 125 421 125 421 146 421 c 0,25,26
 166 421 166 421 178.5 431 c 128,-1,27
 191 441 191 441 191 457 c 0,28,29
 191 477 191 477 174 486 c 128,-1,30
 157 495 157 495 114 494 c 1,31,-1
 114 556 l 1,32,33
 185 552 185 552 185 592 c 0,34,35
 185 607 185 607 173.5 615 c 128,-1,36
 162 623 162 623 144 623 c 0,37,38
 107 623 107 623 94 592 c 1,39,-1
 27 616 l 1,40,41
 40 647 40 647 71.5 663.5 c 128,-1,42
 103 680 103 680 148 680 c 0,43,44
 197 680 197 680 228.5 658.5 c 128,-1,45
 260 637 260 637 260 598 c 0,46,47
 260 575 260 575 248.5 557 c 128,-1,48
 237 539 237 539 219 530 c 1,49,50
 242 521 242 521 255 502 c 128,-1,51
 268 483 268 483 268 460 c 0,52,53
 268 415 268 415 232.5 389 c 128,-1,54
 197 363 197 363 144 363 c 0,55,19
 99 363 99 363 68 381 c 128,-1,20
EndSplineSet
Ligature2: "'frac' Diagonal Fractions in Latin lookup 7 subtable" three slash four
EndChar
StartChar: ccedilla
Encoding: 231 231 127
Width: 632
GlyphClass: 2
Flags: W
AnchorPoint: "Anchor-1" 349 496 basechar 0
LayerCount: 2
Fore
SplineSet
288 -177 m 128,-1,1
 265 -172 265 -172 248 -164 c 1,2,-1
 263 -126 l 1,3,4
 293 -140 293 -140 327 -140 c 0,5,6
 348 -140 348 -140 360 -131 c 128,-1,7
 372 -122 372 -122 372 -109 c 0,8,9
 372 -81 372 -81 333 -81 c 1,10,-1
 295 -86 l 2,11,12
 287 -86 287 -86 282.5 -81.5 c 128,-1,13
 278 -77 278 -77 278 -71 c 0,14,15
 278 -64 278 -64 282 -57 c 2,16,-1
 310 -11 l 1,17,18
 205 -1 205 -1 145.5 69.5 c 128,-1,19
 86 140 86 140 86 248 c 0,20,21
 86 323 86 323 118 382.5 c 128,-1,22
 150 442 150 442 208.5 475.5 c 128,-1,23
 267 509 267 509 344 509 c 0,24,25
 418 509 418 509 475 477.5 c 128,-1,26
 532 446 532 446 562 388 c 1,27,-1
 469 354 l 1,28,29
 453 387 453 387 422 404.5 c 128,-1,30
 391 422 391 422 349 422 c 0,31,32
 285 422 285 422 241 378 c 128,-1,33
 197 334 197 334 197 248 c 256,34,35
 197 162 197 162 241 118.5 c 128,-1,36
 285 75 285 75 347 75 c 0,37,38
 389 75 389 75 422 91.5 c 128,-1,39
 455 108 455 108 471 136 c 1,40,-1
 563 102 l 1,41,42
 536 54 536 54 482 23.5 c 128,-1,43
 428 -7 428 -7 358 -11 c 1,44,-1
 335 -48 l 1,45,46
 350 -45 350 -45 367 -45 c 0,47,48
 398 -45 398 -45 420.5 -60.5 c 128,-1,49
 443 -76 443 -76 443 -103 c 0,50,51
 443 -138 443 -138 412 -160 c 128,-1,52
 381 -182 381 -182 333 -182 c 0,53,0
 311 -182 311 -182 288 -177 c 128,-1,1
EndSplineSet
EndChar
StartChar: eth
Encoding: 240 240 132
Width: 632
GlyphClass: 1
Flags: W
LayerCount: 2
Fore
SplineSet
178 16 m 128,-1,1
 121 44 121 44 87 97 c 128,-1,2
 53 150 53 150 53 223 c 0,3,4
 53 294 53 294 86.5 347.5 c 128,-1,5
 120 401 120 401 175.5 430 c 128,-1,6
 231 459 231 459 293 459 c 0,7,8
 348 459 348 459 393 436.5 c 128,-1,9
 438 414 438 414 459 375 c 1,10,11
 457 446 457 446 439 493 c 128,-1,12
 421 540 421 540 389 571 c 1,13,-1
 328 510 l 1,14,-1
 289 549 l 1,15,-1
 343 602 l 1,16,17
 274 642 274 642 190 637 c 1,18,-1
 190 725 l 1,19,20
 315 730 315 730 411 671 c 1,21,-1
 460 720 l 1,22,-1
 499 681 l 1,23,-1
 456 638 l 1,24,25
 511 590 511 590 540 510 c 128,-1,26
 569 430 569 430 569 323 c 0,27,28
 569 173 569 173 505 80.5 c 128,-1,29
 441 -12 441 -12 303 -12 c 0,30,0
 235 -12 235 -12 178 16 c 128,-1,1
410 113 m 128,-1,32
 451 153 451 153 451 223 c 0,33,34
 451 292 451 292 409.5 333 c 128,-1,35
 368 374 368 374 308 374 c 0,36,37
 247 374 247 374 206.5 334 c 128,-1,38
 166 294 166 294 166 224 c 0,39,40
 166 153 166 153 207 113 c 128,-1,41
 248 73 248 73 309 73 c 0,42,31
 369 73 369 73 410 113 c 128,-1,32
EndSplineSet
EndChar
StartChar: oslash
Encoding: 248 248 179
Width: 632
GlyphClass: 2
Flags: W
AnchorPoint: "Anchor-3" 588 496 basechar 0
AnchorPoint: "Anchor-2" 551 10 basechar 0
AnchorPoint: "Anchor-1" 316 496 basechar 0
AnchorPoint: "Anchor-0" 316 0 basechar 0
LayerCount: 2
Fore
SplineSet
162 35 m 1,1,-1
 116 -15 l 1,2,-1
 73 24 l 1,3,-1
 118 74 l 1,4,5
 60 142 60 142 60 249 c 0,6,7
 60 335 60 335 96 393.5 c 128,-1,8
 132 452 132 452 190.5 480.5 c 128,-1,9
 249 509 249 509 316 509 c 0,10,11
 404 509 404 509 470 462 c 1,12,-1
 515 512 l 1,13,-1
 558 473 l 1,14,-1
 514 424 l 1,15,16
 573 357 573 357 573 249 c 0,17,18
 573 163 573 163 536.5 104.5 c 128,-1,19
 500 46 500 46 441.5 17 c 128,-1,20
 383 -12 383 -12 316 -12 c 0,21,0
 228 -12 228 -12 162 35 c 1,1,-1
420 119.5 m 128,-1,23
 461 164 461 164 461 249 c 0,24,25
 461 302 461 302 440 341 c 1,26,-1
 226 107 l 1,27,28
 264 75 264 75 316 75 c 0,29,22
 379 75 379 75 420 119.5 c 128,-1,23
316 422 m 0,31,32
 254 422 254 422 212.5 377.5 c 128,-1,33
 171 333 171 333 171 249 c 0,34,35
 171 196 171 196 192 157 c 1,36,-1
 407 390 l 1,37,30
 371 422 371 422 316 422 c 0,31,32
EndSplineSet
EndChar
StartChar: aogonek
Encoding: 261 261 119
Width: 632
GlyphClass: 2
Flags: W
AnchorPoint: "Anchor-1" 313 496 basechar 0
LayerCount: 2
Fore
SplineSet
387.5 -147.5 m 128,-1,1
 359 -123 359 -123 359 -89 c 256,2,3
 359 -55 359 -55 380 -31 c 128,-1,4
 401 -7 401 -7 440 11 c 1,5,-1
 424 70 l 1,6,7
 401 31 401 31 356.5 9.5 c 128,-1,8
 312 -12 312 -12 247 -12 c 0,9,10
 169 -12 169 -12 120.5 25.5 c 128,-1,11
 72 63 72 63 72 128 c 0,12,13
 72 215 72 215 157 257.5 c 128,-1,14
 242 300 242 300 418 311 c 1,15,-1
 418 323 l 2,16,17
 418 432 418 432 308 432 c 0,18,19
 265 432 265 432 236 411.5 c 128,-1,20
 207 391 207 391 198 359 c 1,21,-1
 102 390 l 1,22,23
 124 445 124 445 179.5 477 c 128,-1,24
 235 509 235 509 312 509 c 0,25,26
 522 509 522 509 522 313 c 2,27,-1
 522 190 l 2,28,29
 522 74 522 74 540 0 c 1,30,31
 496 -11 496 -11 472.5 -31 c 128,-1,32
 449 -51 449 -51 449 -74 c 0,33,34
 449 -93 449 -93 463 -102 c 128,-1,35
 477 -111 477 -111 498 -111 c 0,36,37
 518 -111 518 -111 540 -103 c 1,38,-1
 540 -163 l 1,39,40
 515 -172 515 -172 475 -172 c 0,41,0
 416 -172 416 -172 387.5 -147.5 c 128,-1,1
381 97 m 128,-1,43
 418 129 418 129 418 200 c 2,44,-1
 418 242 l 1,45,46
 298 234 298 234 241 209.5 c 128,-1,47
 184 185 184 185 184 137 c 0,48,49
 184 104 184 104 209.5 84.5 c 128,-1,50
 235 65 235 65 279 65 c 0,51,42
 344 65 344 65 381 97 c 128,-1,43
EndSplineSet
EndChar
StartChar: dcaron
Encoding: 271 271 130
Width: 632
GlyphClass: 1
Flags: W
LayerCount: 2
Fore
SplineSet
123 20 m 128,-1,1
 76 52 76 52 50.5 111 c 128,-1,2
 25 170 25 170 25 250 c 256,3,4
 25 330 25 330 50.5 388.5 c 128,-1,5
 76 447 76 447 123 478 c 128,-1,6
 170 509 170 509 231 509 c 0,7,8
 274 509 274 509 311.5 487 c 128,-1,9
 349 465 349 465 374 426 c 1,10,-1
 374 708 l 1,11,-1
 481 708 l 1,12,-1
 481 189 l 2,13,14
 481 87 481 87 497 0 c 1,15,-1
 396 0 l 1,16,-1
 377 69 l 1,17,18
 348 30 348 30 311 9 c 128,-1,19
 274 -12 274 -12 231 -12 c 0,20,0
 170 -12 170 -12 123 20 c 128,-1,1
345 120.5 m 128,-1,22
 378 165 378 165 378 249 c 0,23,24
 378 332 378 332 345 377 c 128,-1,25
 312 422 312 422 258 422 c 0,26,27
 202 422 202 422 168 377 c 128,-1,28
 134 332 134 332 134 250 c 256,29,30
 134 168 134 168 168 122 c 128,-1,31
 202 76 202 76 258 76 c 0,32,21
 312 76 312 76 345 120.5 c 128,-1,22
580 719 m 0,34,35
 597 719 597 719 606.5 709.5 c 128,-1,36
 616 700 616 700 616 682 c 0,37,38
 616 667 616 667 603 631 c 2,39,-1
 568 533 l 1,40,-1
 518 533 l 1,41,-1
 538 665 l 2,42,33
 547 719 547 719 580 719 c 0,34,35
EndSplineSet
EndChar
StartChar: Dcroat
Encoding: 272 272 21
Width: 632
GlyphClass: 1
Flags: W
LayerCount: 2
Fore
SplineSet
70 301 m 1,0,-1
 20 301 l 1,1,-1
 20 394 l 1,2,-1
 70 394 l 1,3,-1
 70 668 l 1,4,-1
 250 668 l 2,5,6
 410 668 410 668 502 590 c 128,-1,7
 594 512 594 512 594 335 c 256,8,9
 594 158 594 158 501.5 79 c 128,-1,10
 409 0 409 0 250 0 c 2,11,-1
 70 0 l 1,12,-1
 70 301 l 1,0,-1
420.5 143.5 m 128,-1,14
 486 194 486 194 486 335 c 0,15,16
 486 433 486 433 453 486 c 128,-1,17
 420 539 420 539 367.5 557.5 c 128,-1,18
 315 576 315 576 244 576 c 2,19,-1
 175 576 l 1,20,-1
 175 394 l 1,21,-1
 324 394 l 1,22,-1
 324 301 l 1,23,-1
 175 301 l 1,24,-1
 175 93 l 1,25,-1
 244 93 l 2,26,13
 355 93 355 93 420.5 143.5 c 128,-1,14
EndSplineSet
EndChar
StartChar: dcroat
Encoding: 273 273 131
Width: 632
GlyphClass: 1
Flags: W
LayerCount: 2
Fore
SplineSet
157.5 20 m 128,-1,1
 106 52 106 52 77.5 111 c 128,-1,2
 49 170 49 170 49 250 c 256,3,4
 49 330 49 330 77.5 388.5 c 128,-1,5
 106 447 106 447 157.5 478 c 128,-1,6
 209 509 209 509 276 509 c 0,7,8
 328 509 328 509 373 485 c 128,-1,9
 418 461 418 461 443 418 c 1,10,-1
 443 553 l 1,11,-1
 290 553 l 1,12,-1
 290 613 l 1,13,-1
 443 613 l 1,14,-1
 443 708 l 1,15,-1
 552 708 l 1,16,-1
 552 613 l 1,17,-1
 612 613 l 1,18,-1
 612 553 l 1,19,-1
 552 553 l 1,20,-1
 552 189 l 2,21,22
 552 87 552 87 569 0 c 1,23,-1
 465 0 l 1,24,-1
 444 74 l 1,25,26
 414 33 414 33 370.5 10.5 c 128,-1,27
 327 -12 327 -12 276 -12 c 0,28,0
 209 -12 209 -12 157.5 20 c 128,-1,1
408 120.5 m 128,-1,30
 447 165 447 165 447 249 c 0,31,32
 447 331 447 331 407.5 376.5 c 128,-1,33
 368 422 368 422 305 422 c 0,34,35
 241 422 241 422 201 376.5 c 128,-1,36
 161 331 161 331 161 250 c 256,37,38
 161 169 161 169 201 122.5 c 128,-1,39
 241 76 241 76 305 76 c 256,40,29
 369 76 369 76 408 120.5 c 128,-1,30
EndSplineSet
EndChar
StartChar: uni0123
Encoding: 291 291 145
Width: 632
GlyphClass: 2
Flags: W
AnchorPoint: "Anchor-1" 334 765 basechar 0
AnchorPoint: "Anchor-0" 318 -251 basechar 0
LayerCount: 2
Fore
SplineSet
182 -168 m 128,-1,1
 123 -141 123 -141 99 -82 c 1,2,-1
 191 -45 l 1,3,4
 203 -75 203 -75 235 -92 c 128,-1,5
 267 -109 267 -109 316 -109 c 0,6,7
 373 -109 373 -109 408.5 -81.5 c 128,-1,8
 444 -54 444 -54 444 5 c 2,9,-1
 444 97 l 1,10,11
 413 57 413 57 370 34.5 c 128,-1,12
 327 12 327 12 275 12 c 0,13,14
 214 12 214 12 163.5 41.5 c 128,-1,15
 113 71 113 71 83 126.5 c 128,-1,16
 53 182 53 182 53 257 c 0,17,18
 53 337 53 337 82.5 394 c 128,-1,19
 112 451 112 451 162 480 c 128,-1,20
 212 509 212 509 272 509 c 0,21,22
 326 509 326 509 371.5 485 c 128,-1,23
 417 461 417 461 444 419 c 1,24,-1
 461 496 l 1,25,-1
 553 496 l 1,26,-1
 553 19 l 2,27,28
 553 -87 553 -87 489 -141 c 128,-1,29
 425 -195 425 -195 313 -195 c 0,30,0
 241 -195 241 -195 182 -168 c 128,-1,1
410 140.5 m 128,-1,32
 448 181 448 181 448 259 c 256,33,34
 448 337 448 337 409.5 379.5 c 128,-1,35
 371 422 371 422 308 422 c 0,36,37
 244 422 244 422 205 380 c 128,-1,38
 166 338 166 338 166 261 c 256,39,40
 166 184 166 184 205.5 142 c 128,-1,41
 245 100 245 100 308 100 c 0,42,31
 372 100 372 100 410 140.5 c 128,-1,32
244 657 m 0,44,45
 244 704 244 704 282.5 733.5 c 128,-1,46
 321 763 321 763 381 765 c 1,47,-1
 423 729 l 1,48,49
 382 727 382 727 356.5 710.5 c 128,-1,50
 331 694 331 694 331 663 c 0,51,52
 331 643 331 643 345.5 626.5 c 128,-1,53
 360 610 360 610 385 601 c 1,54,-1
 308 571 l 1,55,43
 244 604 244 604 244 657 c 0,44,45
EndSplineSet
EndChar
StartChar: hbar
Encoding: 295 295 148
Width: 632
GlyphClass: 1
Flags: W
LayerCount: 2
Fore
SplineSet
95 553 m 1,0,-1
 35 553 l 1,1,-1
 35 613 l 1,2,-1
 95 613 l 1,3,-1
 95 708 l 1,4,-1
 205 708 l 1,5,-1
 205 613 l 1,6,-1
 357 613 l 1,7,-1
 357 553 l 1,8,-1
 205 553 l 1,9,-1
 205 426 l 1,10,11
 225 458 225 458 267.5 483.5 c 128,-1,12
 310 509 310 509 367 509 c 0,13,14
 456 509 456 509 499 460 c 128,-1,15
 542 411 542 411 542 323 c 2,16,-1
 542 0 l 1,17,-1
 432 0 l 1,18,-1
 432 297 l 2,19,20
 432 422 432 422 330 422 c 0,21,22
 271 422 271 422 238 380.5 c 128,-1,23
 205 339 205 339 205 263 c 2,24,-1
 205 0 l 1,25,-1
 95 0 l 1,26,-1
 95 553 l 1,0,-1
EndSplineSet
EndChar
StartChar: Iogonek
Encoding: 302 302 47
Width: 632
GlyphClass: 2
Flags: W
AnchorPoint: "Anchor-1" 316 668 basechar 0
LayerCount: 2
Fore
SplineSet
126 83 m 1,0,-1
 260 83 l 1,1,-1
 260 585 l 1,2,-1
 126 585 l 1,3,-1
 126 668 l 1,4,-1
 506 668 l 1,5,-1
 506 585 l 1,6,-1
 373 585 l 1,7,-1
 373 83 l 1,8,-1
 506 83 l 1,9,-1
 506 0 l 1,10,11
 471 -7 471 -7 443.5 -28.5 c 128,-1,12
 416 -50 416 -50 416 -74 c 0,13,14
 416 -92 416 -92 429 -101.5 c 128,-1,15
 442 -111 442 -111 462 -111 c 0,16,17
 478 -111 478 -111 506 -103 c 1,18,-1
 506 -163 l 1,19,20
 481 -172 481 -172 441 -172 c 0,21,22
 382 -172 382 -172 353.5 -147.5 c 128,-1,23
 325 -123 325 -123 325 -89 c 0,24,25
 325 -33 325 -33 388 0 c 1,26,-1
 126 0 l 1,27,-1
 126 83 l 1,0,-1
EndSplineSet
EndChar
StartChar: dotlessi
Encoding: 305 305 150
Width: 632
GlyphClass: 2
Flags: W
AnchorPoint: "Anchor-2" 559 10 basechar 0
AnchorPoint: "Anchor-1" 323 496 basechar 0
AnchorPoint: "Anchor-0" 305 0 basechar 0
LayerCount: 2
Fore
SplineSet
107 84 m 1,0,-1
 278 84 l 1,1,-1
 278 412 l 1,2,-1
 133 412 l 1,3,-1
 133 496 l 1,4,-1
 388 496 l 1,5,-1
 388 84 l 1,6,-1
 559 84 l 1,7,-1
 559 0 l 1,8,-1
 107 0 l 1,9,-1
 107 84 l 1,0,-1
EndSplineSet
EndChar
StartChar: ij
Encoding: 307 307 157
Width: 632
GlyphClass: 1
Flags: W
LayerCount: 2
Fore
SplineSet
297 -72 m 1,0,-1
 351 -72 l 2,1,2
 387 -72 387 -72 403.5 -66.5 c 128,-1,3
 420 -61 420 -61 425.5 -46.5 c 128,-1,4
 431 -32 431 -32 431 0 c 2,5,-1
 431 412 l 1,6,-1
 366 412 l 1,7,-1
 366 496 l 1,8,-1
 541 496 l 1,9,-1
 541 -8 l 2,10,11
 541 -68 541 -68 525.5 -100.5 c 128,-1,12
 510 -133 510 -133 473 -147 c 128,-1,13
 436 -161 436 -161 367 -161 c 2,14,-1
 297 -161 l 1,15,-1
 297 -72 l 1,0,-1
131 412 m 1,16,-1
 65 412 l 1,17,-1
 65 496 l 1,18,-1
 240 496 l 1,19,-1
 240 0 l 1,20,-1
 131 0 l 1,21,-1
 131 412 l 1,16,-1
125 609 m 128,-1,23
 104 630 104 630 104 659 c 0,24,25
 104 689 104 689 125 710 c 128,-1,26
 146 731 146 731 175 731 c 0,27,28
 205 731 205 731 226 710 c 128,-1,29
 247 689 247 689 247 659 c 0,30,31
 247 630 247 630 226 609 c 128,-1,32
 205 588 205 588 175 588 c 0,33,22
 146 588 146 588 125 609 c 128,-1,23
425 609 m 128,-1,35
 404 630 404 630 404 659 c 0,36,37
 404 689 404 689 425 710 c 128,-1,38
 446 731 446 731 476 731 c 0,39,40
 505 731 505 731 526 710 c 128,-1,41
 547 689 547 689 547 659 c 0,42,43
 547 630 547 630 526 609 c 128,-1,44
 505 588 505 588 476 588 c 0,45,34
 446 588 446 588 425 609 c 128,-1,35
EndSplineSet
EndChar
StartChar: lslash
Encoding: 322 322 166
Width: 632
GlyphClass: 1
Flags: W
LayerCount: 2
Fore
SplineSet
265 10 m 128,-1,1
 236 20 236 20 223.5 45.5 c 128,-1,2
 211 71 211 71 211 120 c 2,3,-1
 211 263 l 1,4,-1
 152 227 l 1,5,-1
 152 312 l 1,6,-1
 211 348 l 1,7,-1
 211 624 l 1,8,-1
 96 624 l 1,9,-1
 96 708 l 1,10,-1
 321 708 l 1,11,-1
 321 410 l 1,12,-1
 431 475 l 1,13,-1
 431 389 l 1,14,-1
 321 324 l 1,15,-1
 321 146 l 2,16,17
 321 122 321 122 325 110 c 128,-1,18
 329 98 329 98 341 93.5 c 128,-1,19
 353 89 353 89 379 89 c 2,20,-1
 556 89 l 1,21,-1
 556 0 l 1,22,-1
 347 0 l 2,23,0
 294 0 294 0 265 10 c 128,-1,1
EndSplineSet
EndChar
StartChar: Scedilla
Encoding: 350 350 80
Width: 632
GlyphClass: 2
Flags: W
AnchorPoint: "Anchor-1" 316 668 basechar 0
LayerCount: 2
Fore
SplineSet
222 -164 m 1,1,-1
 237 -126 l 1,2,3
 265 -140 265 -140 300 -140 c 0,4,5
 322 -140 322 -140 334 -131 c 128,-1,6
 346 -122 346 -122 346 -109 c 0,7,8
 346 -81 346 -81 306 -81 c 0,9,10
 299 -81 299 -81 286 -83.5 c 128,-1,11
 273 -86 273 -86 268 -86 c 0,12,13
 260 -86 260 -86 255.5 -81.5 c 128,-1,14
 251 -77 251 -77 251 -70 c 0,15,16
 251 -62 251 -62 255 -57 c 2,17,-1
 284 -10 l 1,18,19
 204 -3 204 -3 142 38.5 c 128,-1,20
 80 80 80 80 56 150 c 1,21,-1
 161 188 l 1,22,23
 175 137 175 137 219 108.5 c 128,-1,24
 263 80 263 80 320 80 c 0,25,26
 379 80 379 80 420.5 108.5 c 128,-1,27
 462 137 462 137 462 188 c 0,28,29
 462 227 462 227 432 250.5 c 128,-1,30
 402 274 402 274 331 290 c 2,31,-1
 258 307 l 2,32,33
 72 347 72 347 72 489 c 0,34,35
 72 545 72 545 105.5 588.5 c 128,-1,36
 139 632 139 632 196 656 c 128,-1,37
 253 680 253 680 321 680 c 0,38,39
 397 680 397 680 461 647 c 128,-1,40
 525 614 525 614 555 549 c 1,41,-1
 451 510 l 1,42,43
 434 547 434 547 396 567.5 c 128,-1,44
 358 588 358 588 315 588 c 0,45,46
 259 588 259 588 222.5 563 c 128,-1,47
 186 538 186 538 186 493 c 0,48,49
 186 428 186 428 282 406 c 2,50,-1
 362 387 l 2,51,52
 467 364 467 364 521.5 321.5 c 128,-1,53
 576 279 576 279 576 198 c 0,54,55
 576 137 576 137 543 90.5 c 128,-1,56
 510 44 510 44 454.5 17.5 c 128,-1,57
 399 -9 399 -9 332 -12 c 1,58,-1
 308 -48 l 1,59,60
 325 -45 325 -45 341 -45 c 0,61,62
 372 -45 372 -45 394.5 -60.5 c 128,-1,63
 417 -76 417 -76 417 -103 c 0,64,65
 417 -138 417 -138 385.5 -160 c 128,-1,66
 354 -182 354 -182 306 -182 c 0,67,0
 260 -182 260 -182 222 -164 c 1,1,-1
EndSplineSet
Substitution2: "'locl' Localized Forms in Latin lookup 4 subtable" uni0218
AlternateSubs2: "'aalt' Access All Alternates in Latin lookup 0 subtable" uni0218
EndChar
StartChar: scedilla
Encoding: 351 351 191
Width: 632
GlyphClass: 2
Flags: W
AnchorPoint: "Anchor-1" 318 496 basechar 0
LayerCount: 2
Fore
SplineSet
269 -177 m 128,-1,1
 246 -172 246 -172 229 -164 c 1,2,-1
 244 -126 l 1,3,4
 274 -140 274 -140 308 -140 c 0,5,6
 329 -140 329 -140 341 -131 c 128,-1,7
 353 -122 353 -122 353 -109 c 0,8,9
 353 -81 353 -81 314 -81 c 1,10,-1
 276 -86 l 2,11,12
 268 -86 268 -86 263.5 -81.5 c 128,-1,13
 259 -77 259 -77 259 -71 c 0,14,15
 259 -64 259 -64 263 -57 c 2,16,-1
 291 -11 l 1,17,18
 219 -5 219 -5 165 26.5 c 128,-1,19
 111 58 111 58 88 113 c 1,20,-1
 184 149 l 1,21,22
 195 112 195 112 232 91.5 c 128,-1,23
 269 71 269 71 324 71 c 0,24,25
 376 71 376 71 408 89.5 c 128,-1,26
 440 108 440 108 440 139 c 0,27,28
 440 166 440 166 416.5 181.5 c 128,-1,29
 393 197 393 197 342 207 c 2,30,-1
 258 223 l 2,31,32
 105 253 105 253 105 359 c 0,33,34
 105 428 105 428 166 468.5 c 128,-1,35
 227 509 227 509 317 509 c 0,36,37
 392 509 392 509 447.5 482 c 128,-1,38
 503 455 503 455 528 401 c 1,39,-1
 433 365 l 1,40,41
 421 395 421 395 390 411 c 128,-1,42
 359 427 359 427 315 427 c 0,43,44
 266 427 266 427 237.5 410.5 c 128,-1,45
 209 394 209 394 209 365 c 0,46,47
 209 342 209 342 228.5 329 c 128,-1,48
 248 316 248 316 288 307 c 2,49,-1
 375 290 l 2,50,51
 464 273 464 273 504 241 c 128,-1,52
 544 209 544 209 544 146 c 0,53,54
 544 75 544 75 487 33.5 c 128,-1,55
 430 -8 430 -8 339 -11 c 1,56,-1
 316 -48 l 1,57,58
 331 -45 331 -45 348 -45 c 0,59,60
 379 -45 379 -45 401.5 -60.5 c 128,-1,61
 424 -76 424 -76 424 -103 c 0,62,63
 424 -138 424 -138 393 -160 c 128,-1,64
 362 -182 362 -182 314 -182 c 0,65,0
 292 -182 292 -182 269 -177 c 128,-1,1
EndSplineSet
Substitution2: "'locl' Localized Forms in Latin lookup 4 subtable" uni0219
AlternateSubs2: "'aalt' Access All Alternates in Latin lookup 0 subtable" uni0219
EndChar
StartChar: uni0163
Encoding: 355 355 196
Width: 632
GlyphClass: 2
Flags: W
AnchorPoint: "Anchor-3" 353 548 basechar 0
AnchorPoint: "Anchor-1" 287 496 basechar 0
LayerCount: 2
Fore
SplineSet
235 -164 m 1,1,-1
 250 -126 l 1,2,3
 278 -140 278 -140 313 -140 c 0,4,5
 335 -140 335 -140 347 -131 c 128,-1,6
 359 -122 359 -122 359 -109 c 0,7,8
 359 -81 359 -81 319 -81 c 0,9,10
 312 -81 312 -81 299 -83.5 c 128,-1,11
 286 -86 286 -86 281 -86 c 0,12,13
 273 -86 273 -86 268.5 -81.5 c 128,-1,14
 264 -77 264 -77 264 -70 c 0,15,16
 264 -62 264 -62 268 -57 c 2,17,-1
 305 2 l 1,18,19
 253 8 253 8 233 35.5 c 128,-1,20
 213 63 213 63 213 130 c 2,21,-1
 213 412 l 1,22,-1
 109 412 l 1,23,-1
 109 496 l 1,24,-1
 213 496 l 1,25,-1
 213 620 l 1,26,-1
 323 620 l 1,27,-1
 323 496 l 1,28,-1
 530 496 l 1,29,-1
 530 412 l 1,30,-1
 323 412 l 1,31,-1
 323 151 l 2,32,33
 323 113 323 113 335 101 c 128,-1,34
 347 89 347 89 383 89 c 2,35,-1
 480 89 l 1,36,-1
 480 0 l 1,37,-1
 352 0 l 1,38,-1
 321 -48 l 1,39,40
 338 -45 338 -45 354 -45 c 0,41,42
 385 -45 385 -45 407.5 -60.5 c 128,-1,43
 430 -76 430 -76 430 -103 c 0,44,45
 430 -138 430 -138 398.5 -160 c 128,-1,46
 367 -182 367 -182 319 -182 c 0,47,0
 273 -182 273 -182 235 -164 c 1,1,-1
EndSplineSet
Substitution2: "'locl' Localized Forms in Latin lookup 4 subtable" uni021B
AlternateSubs2: "'aalt' Access All Alternates in Latin lookup 0 subtable" uni021B
EndChar
StartChar: Uring
Encoding: 366 366 95
Width: 632
GlyphClass: 2
Flags: W
AnchorPoint: "Anchor-3" 636 668 basechar 0
AnchorPoint: "Anchor-1" 317 900 basechar 0
LayerCount: 2
Fore
SplineSet
126.5 53.5 m 128,-1,1
 68 119 68 119 68 255 c 2,2,-1
 68 668 l 1,3,-1
 181 668 l 1,4,-1
 181 242 l 2,5,6
 181 162 181 162 212.5 121.5 c 128,-1,7
 244 81 244 81 317 81 c 0,8,9
 389 81 389 81 420 121 c 128,-1,10
 451 161 451 161 451 242 c 2,11,-1
 451 668 l 1,12,-1
 564 668 l 1,13,-1
 564 255 l 2,14,15
 564 119 564 119 505 53.5 c 128,-1,16
 446 -12 446 -12 316 -12 c 0,17,0
 185 -12 185 -12 126.5 53.5 c 128,-1,1
234.5 700.5 m 128,-1,19
 200 735 200 735 200 783 c 256,20,21
 200 831 200 831 234.5 865.5 c 128,-1,22
 269 900 269 900 318 900 c 0,23,24
 366 900 366 900 399.5 865.5 c 128,-1,25
 433 831 433 831 433 783 c 256,26,27
 433 735 433 735 399.5 700.5 c 128,-1,28
 366 666 366 666 318 666 c 0,29,18
 269 666 269 666 234.5 700.5 c 128,-1,19
352.5 748.5 m 128,-1,31
 367 763 367 763 367 783 c 0,32,33
 367 804 367 804 352.5 818.5 c 128,-1,34
 338 833 338 833 316 833 c 0,35,36
 296 833 296 833 281 818.5 c 128,-1,37
 266 804 266 804 266 783 c 0,38,39
 266 763 266 763 281 748.5 c 128,-1,40
 296 734 296 734 316 734 c 0,41,30
 338 734 338 734 352.5 748.5 c 128,-1,31
EndSplineSet
EndChar
StartChar: Uogonek
Encoding: 370 370 94
Width: 632
GlyphClass: 2
Flags: W
AnchorPoint: "Anchor-3" 636 668 basechar 0
AnchorPoint: "Anchor-1" 316 668 basechar 0
LayerCount: 2
Fore
SplineSet
343.5 -147.5 m 128,-1,1
 315 -123 315 -123 315 -87 c 0,2,3
 315 -44 315 -44 348 -9 c 1,4,5
 337 -10 337 -10 315 -10 c 0,6,7
 201 -10 201 -10 134.5 48 c 128,-1,8
 68 106 68 106 68 254 c 2,9,-1
 68 668 l 1,10,-1
 181 668 l 1,11,-1
 181 242 l 2,12,13
 181 162 181 162 212.5 121.5 c 128,-1,14
 244 81 244 81 317 81 c 0,15,16
 389 81 389 81 420 121 c 128,-1,17
 451 161 451 161 451 242 c 2,18,-1
 451 668 l 1,19,-1
 564 668 l 1,20,-1
 564 255 l 2,21,22
 564 165 564 165 539 107 c 128,-1,23
 514 49 514 49 461 18 c 0,24,25
 435 2 435 2 420 -20 c 128,-1,26
 405 -42 405 -42 405 -67 c 0,27,28
 405 -89 405 -89 419.5 -100 c 128,-1,29
 434 -111 434 -111 455 -111 c 0,30,31
 477 -111 477 -111 496 -103 c 1,32,-1
 496 -162 l 1,33,34
 472 -172 472 -172 431 -172 c 0,35,0
 372 -172 372 -172 343.5 -147.5 c 128,-1,1
EndSplineSet
EndChar
StartChar: uni0237
Encoding: 567 567 159
Width: 632
GlyphClass: 2
Flags: W
AnchorPoint: "Anchor-1" 353 496 basechar 0
AnchorPoint: "Anchor-0" 343 -251 basechar 0
LayerCount: 2
Fore
SplineSet
84 -73 m 1,0,-1
 229 -73 l 2,1,2
 265 -73 265 -73 281 -67.5 c 128,-1,3
 297 -62 297 -62 303 -47.5 c 128,-1,4
 309 -33 309 -33 309 -1 c 2,5,-1
 309 412 l 1,6,-1
 163 412 l 1,7,-1
 163 496 l 1,8,-1
 418 496 l 1,9,-1
 418 -9 l 2,10,11
 418 -69 418 -69 402.5 -101.5 c 128,-1,12
 387 -134 387 -134 350 -148 c 128,-1,13
 313 -162 313 -162 244 -162 c 2,14,-1
 84 -162 l 1,15,-1
 84 -73 l 1,0,-1
EndSplineSet
EndChar
StartChar: gravecomb
Encoding: 768 768 340
Width: 0
GlyphClass: 4
Flags: W
AnchorPoint: "Anchor-5" 367 714 basemark 0
AnchorPoint: "Anchor-5" 367 496 mark 0
AnchorPoint: "Anchor-1" 367 496 mark 0
LayerCount: 2
Fore
SplineSet
234.5 648 m 128,-1,1
 227 659 227 659 227 673 c 0,2,3
 227 690 227 690 239 702 c 128,-1,4
 251 714 251 714 270 714 c 0,5,6
 284 714 284 714 294.5 706.5 c 128,-1,7
 305 699 305 699 319 681 c 2,8,-1
 406 572 l 1,9,-1
 322 572 l 1,10,-1
 264 618 l 2,11,0
 242 637 242 637 234.5 648 c 128,-1,1
EndSplineSet
Substitution2: "Single Substitution lookup 12 subtable" gravecomb.case
Substitution2: "'case' Case-Sensitive Forms in Latin lookup 9 subtable" gravecomb.case
AlternateSubs2: "'aalt' Access All Alternates in Latin lookup 0 subtable" gravecomb.case
EndChar
StartChar: acutecomb
Encoding: 769 769 342
Width: 0
GlyphClass: 4
Flags: W
AnchorPoint: "Anchor-5" 266 714 basemark 0
AnchorPoint: "Anchor-5" 266 496 mark 0
AnchorPoint: "Anchor-1" 266 496 mark 0
LayerCount: 2
Fore
SplineSet
338.5 706.5 m 128,-1,1
 349 714 349 714 363 714 c 0,2,3
 382 714 382 714 394 702 c 128,-1,4
 406 690 406 690 406 673 c 0,5,6
 406 659 406 659 398.5 648 c 128,-1,7
 391 637 391 637 369 618 c 2,8,-1
 311 572 l 1,9,-1
 227 572 l 1,10,-1
 314 681 l 2,11,0
 328 699 328 699 338.5 706.5 c 128,-1,1
EndSplineSet
Substitution2: "Single Substitution lookup 12 subtable" acutecomb.case
Substitution2: "'case' Case-Sensitive Forms in Latin lookup 9 subtable" acutecomb.case
AlternateSubs2: "'aalt' Access All Alternates in Latin lookup 0 subtable" acutecomb.case
EndChar
StartChar: tildecomb
Encoding: 771 771 355
Width: 0
GlyphClass: 4
Flags: W
AnchorPoint: "Anchor-5" 316 675 basemark 0
AnchorPoint: "Anchor-5" 316 496 mark 0
AnchorPoint: "Anchor-1" 316 496 mark 0
LayerCount: 2
Fore
SplineSet
345 578 m 128,-1,1
 328 584 328 584 308 595 c 0,2,3
 281 611 281 611 263 611 c 256,4,5
 245 611 245 611 233.5 602 c 128,-1,6
 222 593 222 593 219 575 c 1,7,-1
 152 575 l 1,8,9
 161 624 161 624 188.5 649 c 128,-1,10
 216 674 216 674 260 674 c 0,11,12
 280 674 280 674 295.5 668 c 128,-1,13
 311 662 311 662 330 651 c 0,14,15
 345 642 345 642 356 638 c 128,-1,16
 367 634 367 634 379 634 c 0,17,18
 392 634 392 634 401.5 640 c 128,-1,19
 411 646 411 646 420 658 c 0,20,21
 436 676 436 676 450 676 c 0,22,23
 463 676 463 676 471.5 667.5 c 128,-1,24
 480 659 480 659 480 645 c 0,25,26
 480 629 480 629 466.5 612 c 128,-1,27
 453 595 453 595 431 583.5 c 128,-1,28
 409 572 409 572 385 572 c 0,29,0
 362 572 362 572 345 578 c 128,-1,1
EndSplineSet
Substitution2: "Single Substitution lookup 12 subtable" tildecomb.case
Substitution2: "'case' Case-Sensitive Forms in Latin lookup 9 subtable" tildecomb.case
AlternateSubs2: "'aalt' Access All Alternates in Latin lookup 0 subtable" tildecomb.case
EndChar
StartChar: uni0394
Encoding: 916 916 225
Width: 632
GlyphClass: 1
Flags: W
LayerCount: 2
Fore
SplineSet
257 668 m 1,0,-1
 376 668 l 1,1,-1
 599 0 l 1,2,-1
 33 0 l 1,3,-1
 257 668 l 1,0,-1
466 93 m 1,4,-1
 316 552 l 1,5,-1
 312 552 l 1,6,-1
 163 93 l 1,7,-1
 466 93 l 1,4,-1
EndSplineSet
EndChar
StartChar: uni1E9E
Encoding: 7838 7838 82
Width: 632
GlyphClass: 1
Flags: W
LayerCount: 2
Fore
SplineSet
308.5 21 m 128,-1,1
 267 54 267 54 249 106 c 1,2,-1
 337 139 l 1,3,4
 353 79 353 79 417 79 c 0,5,6
 454 79 454 79 477.5 106.5 c 128,-1,7
 501 134 501 134 501 184 c 256,8,9
 501 234 501 234 475 260.5 c 128,-1,10
 449 287 449 287 411 287 c 0,11,12
 385 287 385 287 367 278 c 1,13,-1
 323 352 l 1,14,-1
 486 576 l 1,15,16
 414 591 414 591 353 591 c 0,17,18
 262 591 262 591 218 553.5 c 128,-1,19
 174 516 174 516 174 429 c 2,20,-1
 174 0 l 1,21,-1
 61 0 l 1,22,-1
 61 448 l 2,23,24
 61 567 61 567 128.5 623.5 c 128,-1,25
 196 680 196 680 335 680 c 0,26,27
 448 680 448 680 581 651 c 1,28,-1
 581 556 l 1,29,-1
 438 359 l 1,30,31
 485 358 485 358 523.5 335.5 c 128,-1,32
 562 313 562 313 584 272.5 c 128,-1,33
 606 232 606 232 606 181 c 0,34,35
 606 122 606 122 580 78.5 c 128,-1,36
 554 35 554 35 511.5 11.5 c 128,-1,37
 469 -12 469 -12 421 -12 c 0,38,0
 350 -12 350 -12 308.5 21 c 128,-1,1
EndSplineSet
EndChar
StartChar: endash
Encoding: 8211 8211 265
Width: 632
GlyphClass: 1
Flags: W
LayerCount: 2
Fore
SplineSet
100 296 m 1,0,-1
 532 296 l 1,1,-1
 532 201 l 1,2,-1
 100 201 l 1,3,-1
 100 296 l 1,0,-1
EndSplineSet
EndChar
StartChar: quotedblleft
Encoding: 8220 8220 276
Width: 632
GlyphClass: 1
Flags: W
LayerCount: 2
Fore
SplineSet
370.5 396.5 m 128,-1,1
 347 420 347 420 347 454 c 0,2,3
 347 472 347 472 354 488 c 2,4,-1
 425 668 l 1,5,-1
 496 668 l 1,6,-1
 443 532 l 1,7,8
 471 527 471 527 490 504.5 c 128,-1,9
 509 482 509 482 509 454 c 0,10,11
 509 420 509 420 485 396.5 c 128,-1,12
 461 373 461 373 428 373 c 0,13,0
 394 373 394 373 370.5 396.5 c 128,-1,1
146.5 395.5 m 128,-1,15
 123 419 123 419 123 453 c 0,16,17
 123 468 123 468 130 488 c 2,18,-1
 201 668 l 1,19,-1
 272 668 l 1,20,-1
 220 532 l 1,21,22
 247 527 247 527 266 504.5 c 128,-1,23
 285 482 285 482 285 453 c 0,24,25
 285 419 285 419 261.5 395.5 c 128,-1,26
 238 372 238 372 204 372 c 256,27,14
 170 372 170 372 146.5 395.5 c 128,-1,15
EndSplineSet
EndChar
StartChar: daggerdbl
Encoding: 8225 8225 300
Width: 632
GlyphClass: 1
Flags: W
LayerCount: 2
Fore
SplineSet
266 172 m 1,0,-1
 77 172 l 1,1,-1
 77 263 l 1,2,-1
 266 263 l 1,3,-1
 266 404 l 1,4,-1
 77 404 l 1,5,-1
 77 496 l 1,6,-1
 266 496 l 1,7,-1
 266 668 l 1,8,-1
 367 668 l 1,9,-1
 367 496 l 1,10,-1
 555 496 l 1,11,-1
 555 404 l 1,12,-1
 367 404 l 1,13,-1
 367 263 l 1,14,-1
 555 263 l 1,15,-1
 555 172 l 1,16,-1
 367 172 l 1,17,-1
 367 0 l 1,18,-1
 266 0 l 1,19,-1
 266 172 l 1,0,-1
EndSplineSet
EndChar
StartChar: trademark
Encoding: 8482 8482 294
Width: 632
GlyphClass: 1
Flags: W
LayerCount: 2
Fore
SplineSet
94 610 m 1,0,-1
 8 610 l 1,1,-1
 8 668 l 1,2,-1
 244 668 l 1,3,-1
 244 610 l 1,4,-1
 158 610 l 1,5,-1
 158 343 l 1,6,-1
 94 343 l 1,7,-1
 94 610 l 1,0,-1
281 668 m 1,8,-1
 379 668 l 1,9,-1
 451 431 l 1,10,-1
 455 431 l 1,11,-1
 526 668 l 1,12,-1
 624 668 l 1,13,-1
 624 343 l 1,14,-1
 562 343 l 1,15,-1
 562 593 l 1,16,-1
 558 593 l 1,17,-1
 481 343 l 1,18,-1
 424 343 l 1,19,-1
 346 593 l 1,20,-1
 342 593 l 1,21,-1
 342 343 l 1,22,-1
 281 343 l 1,23,-1
 281 668 l 1,8,-1
EndSplineSet
EndChar
StartChar: estimated
Encoding: 8494 8494 301
Width: 632
GlyphClass: 1
Flags: W
LayerCount: 2
Fore
SplineSet
190.5 20.5 m 128,-1,1
 131 53 131 53 94 113.5 c 128,-1,2
 57 174 57 174 57 254 c 0,3,4
 57 318 57 318 90.5 376 c 128,-1,5
 124 434 124 434 183.5 470 c 128,-1,6
 243 506 243 506 316 506 c 0,7,8
 386 506 386 506 445.5 471.5 c 128,-1,9
 505 437 505 437 540 377.5 c 128,-1,10
 575 318 575 318 575 248 c 1,11,-1
 173 248 l 1,12,-1
 173 87 l 1,13,14
 202 61 202 61 238.5 47 c 128,-1,15
 275 33 275 33 316 33 c 0,16,17
 364 33 364 33 406 53 c 128,-1,18
 448 73 448 73 478 108 c 1,19,-1
 523 93 l 1,20,21
 487 44 487 44 433 16 c 128,-1,22
 379 -12 379 -12 316 -12 c 0,23,0
 250 -12 250 -12 190.5 20.5 c 128,-1,1
459 291 m 1,24,-1
 459 407 l 1,25,26
 430 433 430 433 393 447.5 c 128,-1,27
 356 462 356 462 316 462 c 256,28,29
 276 462 276 462 239 447.5 c 128,-1,30
 202 433 202 433 173 407 c 1,31,-1
 173 291 l 1,32,-1
 459 291 l 1,24,-1
EndSplineSet
EndChar
StartChar: radical
Encoding: 8730 8730 330
Width: 632
GlyphClass: 1
Flags: W
LayerCount: 2
Fore
SplineSet
148 128 m 1,0,-1
 40 128 l 1,1,-1
 40 225 l 1,2,-1
 217 225 l 1,3,-1
 320 -28 l 1,4,-1
 506 668 l 1,5,-1
 613 668 l 1,6,-1
 388 -162 l 1,7,-1
 271 -162 l 1,8,-1
 148 128 l 1,0,-1
EndSplineSet
EndChar
StartChar: infinity
Encoding: 8734 8734 326
Width: 632
GlyphClass: 1
Flags: W
LayerCount: 2
Fore
SplineSet
53.5 145.5 m 128,-1,1
 13 188 13 188 13 256 c 256,2,3
 13 324 13 324 53.5 366.5 c 128,-1,4
 94 409 94 409 162 409 c 0,5,6
 208 409 208 409 243 386.5 c 128,-1,7
 278 364 278 364 316 321 c 1,8,9
 355 364 355 364 390 386.5 c 128,-1,10
 425 409 425 409 470 409 c 0,11,12
 538 409 538 409 578.5 366.5 c 128,-1,13
 619 324 619 324 619 256 c 256,14,15
 619 188 619 188 578.5 145.5 c 128,-1,16
 538 103 538 103 470 103 c 0,17,18
 425 103 425 103 390 125.5 c 128,-1,19
 355 148 355 148 316 192 c 1,20,21
 278 149 278 149 243 126 c 128,-1,22
 208 103 208 103 162 103 c 0,23,0
 94 103 94 103 53.5 145.5 c 128,-1,1
214 199.5 m 128,-1,25
 235 215 235 215 269 256 c 1,26,27
 236 297 236 297 214.5 312.5 c 128,-1,28
 193 328 193 328 165 328 c 0,29,30
 135 328 135 328 116.5 307.5 c 128,-1,31
 98 287 98 287 98 256 c 256,32,33
 98 225 98 225 116.5 204.5 c 128,-1,34
 135 184 135 184 165 184 c 0,35,24
 193 184 193 184 214 199.5 c 128,-1,25
516 204.5 m 128,-1,37
 534 225 534 225 534 256 c 256,38,39
 534 287 534 287 516 307.5 c 128,-1,40
 498 328 498 328 468 328 c 0,41,42
 440 328 440 328 418.5 312.5 c 128,-1,43
 397 297 397 297 364 256 c 1,44,45
 398 215 398 215 419 199.5 c 128,-1,46
 440 184 440 184 468 184 c 0,47,36
 498 184 498 184 516 204.5 c 128,-1,37
EndSplineSet
EndChar
StartChar: approxequal
Encoding: 8776 8776 322
Width: 632
GlyphClass: 1
Flags: W
LayerCount: 2
Fore
SplineSet
209 233 m 0,1,2
 235 233 235 233 260.5 224.5 c 128,-1,3
 286 216 286 216 324 199 c 0,4,5
 355 185 355 185 375.5 177.5 c 128,-1,6
 396 170 396 170 415 170 c 0,7,8
 467 170 467 170 470 237 c 1,9,-1
 549 212 l 1,10,11
 536 78 536 78 424 78 c 0,12,13
 398 78 398 78 372.5 86.5 c 128,-1,14
 347 95 347 95 309 112 c 0,15,16
 278 126 278 126 257.5 133.5 c 128,-1,17
 237 141 237 141 218 141 c 0,18,19
 166 141 166 141 163 74 c 1,20,-1
 84 99 l 1,21,0
 97 233 97 233 209 233 c 0,1,2
209 430 m 0,23,24
 236 430 236 430 263 421 c 128,-1,25
 290 412 290 412 324 396 c 0,26,27
 357 382 357 382 376.5 375 c 128,-1,28
 396 368 396 368 415 368 c 0,29,30
 467 368 467 368 470 435 c 1,31,-1
 549 409 l 1,32,33
 536 276 536 276 424 276 c 0,34,35
 397 276 397 276 370 285 c 128,-1,36
 343 294 343 294 309 310 c 0,37,38
 276 324 276 324 256.5 331 c 128,-1,39
 237 338 237 338 218 338 c 0,40,41
 166 338 166 338 163 271 c 1,42,-1
 84 297 l 1,43,22
 97 430 97 430 209 430 c 0,23,24
EndSplineSet
EndChar
StartChar: notequal
Encoding: 8800 8800 316
Width: 632
GlyphClass: 1
Flags: W
LayerCount: 2
Fore
SplineSet
166 113 m 1,0,-1
 64 113 l 1,1,-1
 64 207 l 1,2,-1
 232 207 l 1,3,-1
 294 296 l 1,4,-1
 64 296 l 1,5,-1
 64 390 l 1,6,-1
 359 390 l 1,7,-1
 434 496 l 1,8,-1
 546 496 l 1,9,-1
 471 390 l 1,10,-1
 569 390 l 1,11,-1
 569 296 l 1,12,-1
 406 296 l 1,13,-1
 344 207 l 1,14,-1
 569 207 l 1,15,-1
 569 113 l 1,16,-1
 278 113 l 1,17,-1
 199 0 l 1,18,-1
 86 0 l 1,19,-1
 166 113 l 1,0,-1
EndSplineSet
EndChar
StartChar: lessequal
Encoding: 8804 8804 320
Width: 632
GlyphClass: 1
Flags: W
LayerCount: 2
Fore
SplineSet
74 263 m 1,0,-1
 74 356 l 1,1,-1
 559 497 l 1,2,-1
 559 399 l 1,3,-1
 207 309 l 1,4,-1
 559 220 l 1,5,-1
 559 122 l 1,6,-1
 74 263 l 1,0,-1
74 95 m 1,7,-1
 559 95 l 1,8,-1
 559 0 l 1,9,-1
 74 0 l 1,10,-1
 74 95 l 1,7,-1
EndSplineSet
EndChar
StartChar: greaterequal
Encoding: 8805 8805 319
Width: 632
GlyphClass: 1
Flags: W
LayerCount: 2
Fore
SplineSet
74 220 m 1,0,-1
 426 309 l 1,1,-1
 74 399 l 1,2,-1
 74 497 l 1,3,-1
 559 356 l 1,4,-1
 559 263 l 1,5,-1
 74 122 l 1,6,-1
 74 220 l 1,0,-1
74 95 m 1,7,-1
 559 95 l 1,8,-1
 559 0 l 1,9,-1
 74 0 l 1,10,-1
 74 95 l 1,7,-1
EndSplineSet
EndChar
StartChar: lozenge
Encoding: 9674 9674 334
Width: 632
GlyphClass: 1
Flags: W
LayerCount: 2
Fore
SplineSet
77 315 m 1,0,-1
 317 707 l 1,1,-1
 555 315 l 1,2,-1
 317 -78 l 1,3,-1
 77 315 l 1,0,-1
451 315 m 1,4,-1
 317 537 l 1,5,-1
 181 315 l 1,6,-1
 317 92 l 1,7,-1
 451 315 l 1,4,-1
EndSplineSet
EndChar
StartChar: acutecomb.case
Encoding: 65544 -1 343
Width: 0
GlyphClass: 4
Flags: W
AnchorPoint: "Anchor-5" 262 870 basemark 0
AnchorPoint: "Anchor-5" 262 668 mark 0
AnchorPoint: "Anchor-1" 262 668 mark 0
LayerCount: 2
Fore
SplineSet
344 856 m 128,-1,1
 356 863 356 863 369 863 c 0,2,3
 388 863 388 863 399.5 851.5 c 128,-1,4
 411 840 411 840 411 823 c 0,5,6
 411 809 411 809 402.5 798.5 c 128,-1,7
 394 788 394 788 371 773 c 2,8,-1
 312 734 l 1,9,-1
 222 734 l 1,10,-1
 316 832 l 2,11,0
 332 849 332 849 344 856 c 128,-1,1
EndSplineSet
EndChar
StartChar: gravecomb.case
Encoding: 65543 -1 341
Width: 0
GlyphClass: 4
Flags: W
AnchorPoint: "Anchor-5" 370 870 basemark 0
AnchorPoint: "Anchor-5" 370 668 mark 0
AnchorPoint: "Anchor-1" 370 668 mark 0
LayerCount: 2
Fore
SplineSet
230 798.5 m 128,-1,1
 222 809 222 809 222 823 c 0,2,3
 222 841 222 841 233.5 852 c 128,-1,4
 245 863 245 863 264 863 c 0,5,6
 277 863 277 863 289 856 c 128,-1,7
 301 849 301 849 317 832 c 2,8,-1
 411 734 l 1,9,-1
 321 734 l 1,10,-1
 262 773 l 2,11,0
 238 788 238 788 230 798.5 c 128,-1,1
EndSplineSet
EndChar
StartChar: uni0307.large
Encoding: 65542 -1 339
Width: 0
GlyphClass: 4
Flags: W
AnchorPoint: "Anchor-5" 316 731 basemark 0
AnchorPoint: "Anchor-5" 316 496 mark 0
AnchorPoint: "Anchor-1" 316 496 mark 0
LayerCount: 2
Fore
SplineSet
266 609 m 128,-1,1
 245 630 245 630 245 659 c 0,2,3
 245 689 245 689 266 710 c 128,-1,4
 287 731 287 731 316 731 c 0,5,6
 346 731 346 731 367 710 c 128,-1,7
 388 689 388 689 388 659 c 0,8,9
 388 630 388 630 367 609 c 128,-1,10
 346 588 346 588 316 588 c 0,11,0
 287 588 287 588 266 609 c 128,-1,1
EndSplineSet
EndChar
StartChar: uni030A.case
Encoding: 65550 -1 354
Width: 0
GlyphClass: 4
Flags: W
AnchorPoint: "Anchor-5" 316 850 basemark 0
AnchorPoint: "Anchor-5" 316 668 mark 0
AnchorPoint: "Anchor-1" 316 668 mark 0
LayerCount: 2
Fore
SplineSet
234 652.5 m 128,-1,1
 200 687 200 687 200 735 c 256,2,3
 200 783 200 783 234 816.5 c 128,-1,4
 268 850 268 850 316 850 c 256,5,6
 364 850 364 850 398 816.5 c 128,-1,7
 432 783 432 783 432 735 c 256,8,9
 432 687 432 687 398 652.5 c 128,-1,10
 364 618 364 618 316 618 c 256,11,0
 268 618 268 618 234 652.5 c 128,-1,1
352.5 698.5 m 128,-1,13
 367 713 367 713 367 734 c 256,14,15
 367 755 367 755 352.5 770 c 128,-1,16
 338 785 338 785 316 785 c 0,17,18
 296 785 296 785 281 770 c 128,-1,19
 266 755 266 755 266 734 c 256,20,21
 266 713 266 713 281 698.5 c 128,-1,22
 296 684 296 684 316 684 c 0,23,12
 338 684 338 684 352.5 698.5 c 128,-1,13
EndSplineSet
EndChar
StartChar: uni0328.alt
Encoding: 65553 -1 362
Width: 0
GlyphClass: 4
Flags: W
AnchorPoint: "Anchor-2" 407 10 mark 0
LayerCount: 2
Fore
SplineSet
254.5 -147.5 m 128,-1,1
 226 -123 226 -123 226 -87 c 0,2,3
 226 -44 226 -44 259 -12 c 128,-1,4
 292 20 292 20 343 34 c 1,5,-1
 392 32 l 1,6,7
 316 -16 316 -16 316 -67 c 0,8,9
 316 -89 316 -89 330.5 -100 c 128,-1,10
 345 -111 345 -111 366 -111 c 0,11,12
 388 -111 388 -111 407 -103 c 1,13,-1
 407 -162 l 1,14,15
 383 -172 383 -172 342 -172 c 0,16,0
 283 -172 283 -172 254.5 -147.5 c 128,-1,1
EndSplineSet
EndChar
StartChar: zero.zero
Encoding: 65539 -1 239
Width: 632
GlyphClass: 1
Flags: W
LayerCount: 2
Fore
SplineSet
116.5 79 m 128,-1,1
 45 170 45 170 45 335 c 256,2,3
 45 500 45 500 116 591 c 128,-1,4
 187 682 187 682 316 682 c 256,5,6
 445 682 445 682 516 591.5 c 128,-1,7
 587 501 587 501 587 335 c 0,8,9
 587 170 587 170 516 79 c 128,-1,10
 445 -12 445 -12 316 -12 c 0,11,0
 188 -12 188 -12 116.5 79 c 128,-1,1
435 136.5 m 128,-1,13
 478 201 478 201 478 336 c 0,14,15
 478 454 478 454 436.5 526 c 128,-1,16
 395 598 395 598 316 598 c 0,17,18
 238 598 238 598 196.5 526 c 128,-1,19
 155 454 155 454 155 336 c 0,20,21
 155 201 155 201 198 136.5 c 128,-1,22
 241 72 241 72 316 72 c 0,23,12
 392 72 392 72 435 136.5 c 128,-1,13
268 286 m 128,-1,25
 248 306 248 306 248 335 c 256,26,27
 248 364 248 364 268 383.5 c 128,-1,28
 288 403 288 403 316 403 c 0,29,30
 345 403 345 403 365 383 c 128,-1,31
 385 363 385 363 385 335 c 256,32,33
 385 307 385 307 365 286.5 c 128,-1,34
 345 266 345 266 316 266 c 0,35,24
 288 266 288 266 268 286 c 128,-1,25
EndSplineSet
EndChar
